ply
format ascii 1.0
comment VCGLIB generated
element vertex 456
property float x
property float y
property float z
property float nx
property float ny
property float nz
property uchar red
property uchar green
property uchar blue
property uchar alpha
element face 912
property list uchar int vertex_indices
end_header
-10.01207 1.16535 35.39992 -0.9212353 0.09017932 0.3784088 0 30 90 255 
-10.05987 0.1851633 35.39992 -0.925594 -0.0003097779 0.3785177 0 30 90 255 
-9.459869 0.1853633 35.99992 -0.3928486 -0.0001322165 0.9196032 0 30 90 255 
-9.411964 1.136361 35.99992 -0.3907219 0.03954832 0.9196588 0 30 90 255 
-6.811165 4.083364 35.99992 0.471819 -0.2721946 0.8386281 0 30 90 255 
-6.808563 -3.710868 35.99992 0.4716378 0.2725085 0.8386281 0 30 90 255 
-6.811165 4.083399 -35.99998 0.4718193 -0.2721938 -0.8386281 0 30 90 255 
-0.06248474 7.982768 -35.99998 0.0001822253 -0.5447041 -0.8386284 0 30 90 255 
-0.0625 7.982732 35.99992 0.0001806814 -0.5447052 0.8386276 0 30 90 255 
-5.034813 8.164099 35.99992 -0.2069604 0.3323208 0.9201795 0 30 90 255 
-5.81617 7.619874 35.99992 -0.2395376 0.3097399 0.9201537 0 30 90 255 
-6.538467 6.999392 35.99992 -0.2696842 0.2839772 0.9201236 0 30 90 255 
-7.194267 6.309023 35.99992 -0.2970994 0.2552928 0.9200856 0 30 90 255 
-7.776863 5.555848 35.99992 -0.3215051 0.2239739 0.9200382 0 30 90 255 
-8.280266 4.747597 35.99992 -0.3426428 0.1903313 0.9199837 0 30 90 255 
-8.699364 3.892563 35.99992 -0.3602982 0.1547022 0.9199198 0 30 90 255 
-9.02977 2.999521 35.99992 -0.3742878 0.1174437 0.9198455 0 30 90 255 
-9.268066 2.077634 35.99992 -0.3844667 0.07893014 0.9197584 0 30 90 255 
-9.630264 3.088154 35.39993 -0.8861338 0.2680914 0.3780132 0 30 90 255 
-9.868362 2.136131 35.39993 -0.9080582 0.1799873 0.3781996 0 30 90 255 
-9.630264 3.088163 17.69994 -0.9570377 0.2899636 -5.939827e-08 0 30 90 255 
-9.868362 2.136139 17.69994 -0.98085 0.1947645 -1.126176e-07 0 30 90 255 
-10.01207 1.165359 17.69994 -0.9952174 0.09768581 -1.651456e-07 0 30 90 255 
-9.868362 2.136148 -3.051758e-05 -0.98085 0.1947646 -3.247997e-07 0 30 90 255 
-9.630264 3.088172 -3.051758e-05 -0.9570377 0.2899636 -2.664482e-07 0 30 90 255 
-9.630264 3.088181 -17.70001 -0.9570377 0.2899636 -5.939831e-08 0 30 90 255 
-9.299965 4.01228 -17.70001 -0.9240069 0.3823758 -5.994362e-09 0 30 90 255 
-9.299965 4.012288 -35.39999 -0.8556662 0.3536443 -0.3778507 0 30 90 255 
-8.880669 4.899561 -35.39999 -0.8169466 0.4358133 -0.3777103 0 30 90 255 
-8.699364 3.892599 -35.99998 -0.3602982 0.1547022 -0.9199198 0 30 90 255 
-8.280266 4.747633 -35.99998 -0.342643 0.1903314 -0.9199836 0 30 90 255 
-7.776863 5.555884 -35.99998 -0.3215038 0.2239769 -0.9200379 0 30 90 255 
-7.194267 6.309059 -35.99998 -0.2971016 0.2552964 -0.9200839 0 30 90 255 
-6.538467 6.999428 -35.99998 -0.269687 0.28398 -0.9201219 0 30 90 255 
-5.81617 7.61991 -35.99998 -0.2395399 0.309743 -0.9201521 0 30 90 255 
-5.034805 8.164135 -35.99998 -0.2069622 0.3323238 -0.920178 0 30 90 255 
-5.618362 8.501381 -35.39998 -0.5150864 0.7696419 -0.3772763 0 30 90 255 
-4.776794 9.00618 -35.39998 -0.4371342 0.8164623 -0.3772306 0 30 90 255 
-4.202393 8.62652 -35.99998 -0.1722917 0.3514989 -0.9201978 0 30 90 255 
-3.327499 9.00232 -35.99998 -0.1358778 0.3670791 -0.920212 0 30 90 255 
-2.41906 9.287678 -35.99998 -0.09808604 0.3789044 -0.9202231 0 30 90 255 
-1.48642 9.479667 -35.99998 -0.05930514 0.3868599 -0.9202295 0 30 90 255 
-0.5391235 9.576317 -35.99998 -0.0199225 0.390864 -0.9202329 0 30 90 255 
0.4130859 9.576634 -35.99998 0.01966375 0.3908769 -0.9202329 0 30 90 255 
1.360435 9.480618 -35.99998 0.05904743 0.3868999 -0.9202293 0 30 90 255 
2.293213 9.289252 -35.99998 0.0978338 0.378971 -0.9202225 0 30 90 255 
3.201843 9.0045 -35.99998 0.1356319 0.3671697 -0.9202121 0 30 90 255 
4.077003 8.629286 -35.99998 0.1720576 0.3516152 -0.9201972 0 30 90 255 
4.909714 8.167456 -35.99998 0.2067408 0.3324628 -0.9201776 0 30 90 255 
6.688812 4.087907 -35.99998 -0.4716372 -0.2725092 -0.8386281 0 30 90 255 
5.691437 7.623753 -35.99998 0.2393331 0.3099038 -0.9201518 0 30 90 255 
6.414131 7.003754 -35.99998 0.2695 0.2841603 -0.9201211 0 30 90 255 
7.070396 6.313822 -35.99998 0.2969322 0.2554958 -0.9200832 0 30 90 255 
7.653503 5.561037 -35.99998 0.3213546 0.2241918 -0.9200377 0 30 90 255 
8.15744 4.753122 -35.99998 0.3425117 0.1905594 -0.9199853 0 30 90 255 
8.577087 3.898368 -35.99998 0.360198 0.1549433 -0.9199185 0 30 90 255 
8.908081 3.005547 -35.99998 0.3742119 0.1176967 -0.919844 0 30 90 255 
9.147064 2.083819 -35.99998 0.3844119 0.07918683 -0.9197592 0 30 90 255 
9.291565 1.142643 -35.99998 0.3906898 0.0398101 -0.9196612 0 30 90 255 
9.340111 0.1916772 -35.99998 0.3928463 0.0001322162 -0.9196042 0 30 90 255 
6.691422 -3.706323 -35.99999 -0.4718188 0.2721954 -0.8386279 0 30 90 255 
6.688797 4.087872 35.99992 -0.4716373 -0.2725111 0.8386275 0 30 90 255 
4.909691 8.167419 35.99993 0.2067396 0.3324607 0.9201786 0 30 90 255 
4.076981 8.629248 35.99993 0.1720566 0.351613 0.9201983 0 30 90 255 
3.20182 9.004464 35.99993 0.1356308 0.3671674 0.9202132 0 30 90 255 
2.29319 9.289216 35.99993 0.09783339 0.3789677 0.920224 0 30 90 255 
1.36042 9.480581 35.99993 0.05904329 0.3868959 0.9202312 0 30 90 255 
0.4130707 9.576598 35.99992 0.01965803 0.3908738 0.9202344 0 30 90 255 
-0.5391388 9.576281 35.99992 -0.01992226 0.3908591 0.9202349 0 30 90 255 
-1.486427 9.47963 35.99992 -0.05930441 0.3868552 0.9202316 0 30 90 255 
-2.419067 9.287642 35.99992 -0.09808555 0.3789005 0.9202248 0 30 90 255 
-3.327515 9.002284 35.99992 -0.1358767 0.367076 0.9202135 0 30 90 255 
-4.202415 8.626484 35.99992 -0.1722904 0.351496 0.9201992 0 30 90 255 
-3.889816 9.426022 35.39993 -0.3549574 0.8554107 0.3771974 0 30 90 255 
-4.77681 9.006142 35.39993 -0.4371336 0.816461 0.3772342 0 30 90 255 
-5.618362 8.501345 35.39993 -0.5150855 0.7696407 0.3772799 0 30 90 255 
-4.77681 9.006152 17.69995 -0.4716905 0.8817642 3.502831e-07 0 30 90 255 
-5.618362 8.501354 17.69995 -0.5558485 0.8312837 2.937571e-07 0 30 90 255 
-6.406364 7.916489 35.39993 -0.5880569 0.7154059 0.3773375 0 30 90 255 
-6.406364 7.916499 17.69995 -0.6346506 0.7727993 2.491475e-07 0 30 90 255 
-7.133369 7.25721 35.39993 -0.6553448 0.6542826 0.3774089 0 30 90 255 
-7.133369 7.257219 17.69995 -0.7073426 0.7068709 1.997349e-07 0 30 90 255 
-7.792168 6.529855 35.39993 -0.716304 0.5868623 0.3774935 0 30 90 255 
-7.792168 6.529863 17.69995 -0.7732233 0.6341339 1.579425e-07 0 30 90 255 
-8.376465 5.741429 35.39993 -0.7703451 0.5138038 0.37759 0 30 90 255 
-8.376465 5.741438 17.69995 -0.8316555 0.555292 1.083364e-07 0 30 90 255 
-8.880669 4.899525 35.39993 -0.8169465 0.4358132 0.3777106 0 30 90 255 
-8.880669 4.899534 17.69994 -0.8820784 0.4711027 4.998216e-08 0 30 90 255 
-9.299965 4.012252 35.39993 -0.855666 0.3536442 0.3778511 0 30 90 255 
-9.299965 4.012261 17.69994 -0.9240069 0.3823757 -8.773962e-09 0 30 90 255 
-8.880669 4.899543 -3.051758e-05 -0.8820785 0.4711025 -1.459814e-07 0 30 90 255 
-8.376465 5.741447 -3.051758e-05 -0.8316556 0.5552918 -8.093026e-08 0 30 90 255 
-8.376465 5.741456 -17.70001 -0.8316555 0.555292 9.337604e-08 0 30 90 255 
-7.792068 6.529881 -17.70001 -0.7732233 0.6341339 1.408591e-07 0 30 90 255 
-7.792068 6.52989 -35.39998 -0.7163043 0.5868647 -0.3774892 0 30 90 255 
-7.133263 7.257246 -35.39998 -0.655346 0.6542835 -0.3774053 0 30 90 255 
-7.133263 7.257237 -17.7 -0.7073423 0.7068712 1.999668e-07 0 30 90 255 
-6.406364 7.916526 -35.39998 -0.5880577 0.7154071 -0.3773339 0 30 90 255 
-6.406364 7.916516 -17.7 -0.6346506 0.7727993 2.483374e-07 0 30 90 255 
-5.618362 8.501372 -17.7 -0.5558485 0.8312836 3.064141e-07 0 30 90 255 
-6.406364 7.916507 -3.051758e-05 -0.6346503 0.7727994 1.212713e-07 0 30 90 255 
-5.618362 8.501364 -3.051758e-05 -0.5558484 0.8312837 1.747504e-07 0 30 90 255 
-4.776794 9.006169 -17.7 -0.4716906 0.8817642 3.490785e-07 0 30 90 255 
-3.889793 9.426057 -35.39998 -0.3549576 0.8554121 -0.3771938 0 30 90 255 
-3.889793 9.426048 -17.7 -0.3829927 0.9237514 3.654027e-07 0 30 90 255 
-2.965927 9.756974 -35.39998 -0.2693452 0.8861141 -0.3771671 0 30 90 255 
-2.965927 9.756966 -17.7 -0.2906045 0.9568433 4.148899e-07 0 30 90 255 
-2.014053 9.995741 -35.39998 -0.1811286 0.9082692 -0.3771467 0 30 90 255 
-2.014053 9.995732 -17.7 -0.1954175 0.9807202 4.460739e-07 0 30 90 255 
-1.043373 10.14006 -35.39998 -0.09116045 0.9216607 -0.3771358 0 30 90 255 
-1.043373 10.14005 -17.7 -0.09834969 0.9951519 4.753126e-07 0 30 90 255 
-0.06322479 10.18854 -35.39998 -0.0003089488 0.9261593 -0.3771324 0 30 90 255 
-0.06322479 10.18853 -17.7 -0.0003337163 1 5.108379e-07 0 30 90 255 
0.9169617 10.14071 -35.39997 0.09054495 0.9217216 -0.3771351 0 30 90 255 
0.9169617 10.14071 -17.7 0.09768444 0.9952174 5.304648e-07 0 30 90 255 
1.887741 9.997045 -35.39997 0.1805219 0.9083899 -0.3771468 0 30 90 255 
1.887741 9.997035 -17.7 0.1947627 0.9808504 5.440331e-07 0 30 90 255 
2.839767 9.758913 -35.39998 0.2687534 0.8862937 -0.3771673 0 30 90 255 
2.839767 9.758904 -17.7 0.2899648 0.9570373 5.401105e-07 0 30 90 255 
3.76387 9.428613 -35.39998 0.3543857 0.8556491 -0.377194 0 30 90 255 
3.76387 9.428604 -17.7 0.3823749 0.9240073 5.304788e-07 0 30 90 255 
4.651131 9.009327 -35.39998 0.43659 0.8167537 -0.3772301 0 30 90 255 
4.651131 9.009318 -17.7 0.4711032 0.8820782 5.524311e-07 0 30 90 255 
5.493042 8.505091 -35.39998 0.5145711 0.7699867 -0.3772759 0 30 90 255 
5.493042 8.505082 -17.7 0.555292 0.8316555 5.565292e-07 0 30 90 255 
6.281471 7.920763 -35.39998 0.5875816 0.7157987 -0.3773328 0 30 90 255 
6.281471 7.920753 -17.7 0.634136 0.7732216 5.228068e-07 0 30 90 255 
7.008827 7.261968 -35.39998 0.6549117 0.6547192 -0.3774038 0 30 90 255 
7.008827 7.261961 -17.7 0.7068723 0.7073412 5.047614e-07 0 30 90 255 
7.668091 6.535053 -35.39998 0.7159103 0.5873458 -0.3774884 0 30 90 255 
7.668091 6.535044 -17.7 0.772797 0.6346533 4.914066e-07 0 30 90 255 
8.25296 5.747018 -35.39998 0.7699986 0.5143217 -0.3775916 0 30 90 255 
8.25296 5.747009 -17.7 0.8312823 0.5558505 4.670217e-07 0 30 90 255 
8.757767 4.905451 -35.39998 0.8166562 0.4363564 -0.3777114 0 30 90 255 
8.757767 4.905442 -17.7 0.8817659 0.4716873 4.34822e-07 0 30 90 255 
9.177628 4.018458 -35.39998 0.8554314 0.3542139 -0.3778486 0 30 90 255 
9.177628 4.018449 -17.7 0.923752 0.3829913 3.939369e-07 0 30 90 255 
9.508553 3.094581 -35.39998 0.8859532 0.2686883 -0.3780126 0 30 90 255 
9.508553 3.094572 -17.7 0.9568419 0.290609 3.526167e-07 0 30 90 255 
9.747322 2.142717 -35.39998 0.9079375 0.180594 -0.3782002 0 30 90 255 
9.747322 2.142708 -17.70001 0.98072 0.1954183 3.096795e-07 0 30 90 255 
9.891647 1.172033 -35.39999 0.9211726 0.09079417 -0.3784145 0 30 90 255 
9.891647 1.172024 -17.70001 0.9951522 0.09834749 2.640726e-07 0 30 90 255 
9.940117 0.1918772 -35.39999 0.9255928 0.0003097893 -0.3785207 0 30 90 255 
9.892296 -0.7883108 -35.39999 0.9212339 -0.09017985 -0.3784121 0 30 90 255 
9.292206 -0.7593217 -35.99998 0.39072 -0.03954855 -0.9196597 0 30 90 255 
9.748627 -1.759091 -35.39999 0.9080576 -0.1799876 -0.378201 0 30 90 255 
9.148331 -1.700594 -35.99998 0.3844663 -0.07892922 -0.9197586 0 30 90 255 
8.909966 -2.622481 -35.99999 0.374287 -0.1174412 -0.9198461 0 30 90 255 
8.579567 -3.515523 -35.99999 0.3602981 -0.1547022 -0.9199198 0 30 90 255 
8.160507 -4.370557 -35.99999 0.3426428 -0.1903312 -0.9199837 0 30 90 255 
7.657097 -5.178808 -35.99999 0.3215069 -0.2239737 -0.9200376 0 30 90 255 
7.074486 -5.931983 -35.99999 0.2971018 -0.2552932 -0.9200847 0 30 90 255 
6.418671 -6.622353 -35.99999 0.2696857 -0.2839787 -0.9201227 0 30 90 255 
5.696396 -7.242834 -35.99999 0.239539 -0.3097419 -0.9201527 0 30 90 255 
4.915047 -7.787059 -35.99999 0.2069624 -0.3323233 -0.9201782 0 30 90 255 
-0.05728912 -7.605693 -36 -0.0001812739 0.5447049 -0.8386278 0 30 90 255 
6.691406 -3.70636 35.99992 -0.4718193 0.2721936 0.8386281 0 30 90 255 
-0.05729675 -7.605729 35.99991 -0.0001828667 0.5447049 0.8386278 0 30 90 255 
4.915024 -7.787095 35.99992 0.2069616 -0.332324 0.9201781 0 30 90 255 
5.696381 -7.24287 35.99992 0.2395403 -0.3097436 0.9201518 0 30 90 255 
6.418663 -6.622389 35.99992 0.2696876 -0.2839807 0.9201216 0 30 90 255 
7.074471 -5.93202 35.99992 0.2971013 -0.2552979 0.9200836 0 30 90 255 
7.657074 -5.178845 35.99992 0.3215044 -0.2239786 0.9200373 0 30 90 255 
8.160484 -4.370593 35.99992 0.3426455 -0.1903328 0.9199824 0 30 90 255 
8.579544 -3.51556 35.99992 0.3603009 -0.1547034 0.9199185 0 30 90 255 
8.90995 -2.622518 35.99992 0.3742906 -0.1174447 0.9198442 0 30 90 255 
9.148315 -1.70063 35.99992 0.3844696 -0.07893075 0.9197571 0 30 90 255 
9.292191 -0.7593577 35.99992 0.3907203 -0.03954995 0.9196594 0 30 90 255 
9.340103 0.1916403 35.99992 0.3928463 0.0001318906 0.9196042 0 30 90 255 
9.291557 1.142607 35.99992 0.3906896 0.03980871 0.9196613 0 30 90 255 
9.147057 2.083783 35.99992 0.3844084 0.07918527 0.9197608 0 30 90 255 
8.908073 3.00551 35.99992 0.3742083 0.1176932 0.9198459 0 30 90 255 
8.577072 3.898332 35.99992 0.3601952 0.154942 0.9199198 0 30 90 255 
8.157433 4.753086 35.99992 0.342509 0.1905578 0.9199866 0 30 90 255 
7.653481 5.561001 35.99992 0.321357 0.2241868 0.920038 0 30 90 255 
7.070381 6.313787 35.99993 0.2969327 0.2554911 0.9200844 0 30 90 255 
6.414116 7.003718 35.99993 0.2694981 0.2841582 0.9201222 0 30 90 255 
5.691422 7.623717 35.99993 0.2393317 0.3099021 0.9201527 0 30 90 255 
6.281456 7.920727 35.39993 0.5875813 0.7157988 0.3773333 0 30 90 255 
5.493027 8.505055 35.39993 0.5145711 0.7699865 0.3772765 0 30 90 255 
4.651123 9.009291 35.39993 0.4365903 0.8167532 0.3772309 0 30 90 255 
5.493027 8.505066 17.69995 0.555292 0.8316555 5.446586e-07 0 30 90 255 
4.651123 9.0093 17.69996 0.4711028 0.8820783 5.292691e-07 0 30 90 255 
3.763855 9.428577 35.39993 0.3543853 0.8556491 0.3771947 0 30 90 255 
3.763855 9.428586 17.69995 0.3823753 0.9240071 5.558599e-07 0 30 90 255 
2.839752 9.758877 35.39993 0.2687535 0.8862935 0.3771676 0 30 90 255 
2.839752 9.758886 17.69995 0.2899648 0.9570373 5.519918e-07 0 30 90 255 
1.887733 9.997008 35.39993 0.1805222 0.9083889 0.377149 0 30 90 255 
1.887733 9.997017 17.69995 0.1947627 0.9808504 5.442818e-07 0 30 90 255 
0.9169464 10.14068 35.39993 0.09054325 0.92172 0.3771395 0 30 90 255 
0.9169464 10.14069 17.69995 0.09768443 0.9952174 5.303399e-07 0 30 90 255 
-0.06323242 10.1885 35.39993 -0.0003090648 0.9261573 0.3771373 0 30 90 255 
-0.06323242 10.18851 17.69995 -0.0003341555 0.9999999 4.987925e-07 0 30 90 255 
-1.043396 10.14002 35.39993 -0.09116026 0.9216586 0.377141 0 30 90 255 
-1.043396 10.14003 17.69995 -0.09834971 0.9951519 4.743673e-07 0 30 90 255 
-2.014076 9.995706 35.39993 -0.1811286 0.9082669 0.377152 0 30 90 255 
-2.014076 9.995714 17.69995 -0.1954175 0.9807202 4.470056e-07 0 30 90 255 
-2.96595 9.756939 35.39993 -0.2693453 0.8861127 0.3771704 0 30 90 255 
-2.96595 9.756948 17.69995 -0.2906046 0.9568433 4.139808e-07 0 30 90 255 
-3.889816 9.42603 17.69995 -0.3829923 0.9237515 3.897998e-07 0 30 90 255 
-2.965935 9.756956 -1.907349e-05 -0.2906046 0.9568433 3.641364e-07 0 30 90 255 
-2.014069 9.995724 -1.907349e-05 -0.1954175 0.9807202 4.18008e-07 0 30 90 255 
-3.889809 9.42604 -1.907349e-05 -0.3829923 0.9237515 3.082353e-07 0 30 90 255 
-4.77681 9.006161 -3.051758e-05 -0.471691 0.881764 2.242672e-07 0 30 90 255 
-1.043388 10.14004 -1.907349e-05 -0.09834972 0.9951519 4.6686e-07 0 30 90 255 
-0.06323242 10.18852 -1.907349e-05 -0.0003341617 0.9999999 4.987211e-07 0 30 90 255 
0.916954 10.1407 -1.907349e-05 0.09768441 0.9952174 5.377017e-07 0 30 90 255 
1.887741 9.997026 -1.907349e-05 0.1947627 0.9808504 5.731378e-07 0 30 90 255 
2.839767 9.758895 -1.907349e-05 0.2899648 0.9570373 6.016946e-07 0 30 90 255 
3.763863 9.428596 -1.907349e-05 0.3823752 0.9240072 6.372928e-07 0 30 90 255 
4.651131 9.00931 -1.907349e-05 0.4711033 0.8820781 6.55166e-07 0 30 90 255 
5.493034 8.505074 -1.907349e-05 0.5552917 0.8316557 6.426391e-07 0 30 90 255 
6.281464 7.920745 -1.907349e-05 0.6341363 0.7732213 6.683091e-07 0 30 90 255 
6.281456 7.920735 17.69995 0.6341363 0.7732213 5.332596e-07 0 30 90 255 
7.008812 7.26195 -1.907349e-05 0.7068727 0.7073408 6.763927e-07 0 30 90 255 
7.008804 7.261942 17.69995 0.7068724 0.7073411 4.953487e-07 0 30 90 255 
7.668091 6.535035 -1.907349e-05 0.772797 0.6346533 6.579597e-07 0 30 90 255 
7.668083 6.535026 17.69995 0.772797 0.6346533 4.826663e-07 0 30 90 255 
8.252953 5.746999 -1.907349e-05 0.8312823 0.5558506 6.39487e-07 0 30 90 255 
8.252945 5.746991 17.69995 0.8312822 0.5558506 4.564548e-07 0 30 90 255 
8.757751 4.905433 -3.051758e-05 0.8817658 0.4716875 6.137687e-07 0 30 90 255 
8.757744 4.905424 17.69995 0.8817659 0.4716874 4.245593e-07 0 30 90 255 
9.177628 4.01844 -3.051758e-05 0.923752 0.3829913 5.888489e-07 0 30 90 255 
9.177612 4.018431 17.69995 0.923752 0.3829912 3.939369e-07 0 30 90 255 
9.508545 3.094563 -3.051758e-05 0.9568419 0.290609 5.596264e-07 0 30 90 255 
9.508537 3.094554 17.69995 0.9568419 0.290609 3.526166e-07 0 30 90 255 
9.747314 2.142699 -3.051758e-05 0.98072 0.1954183 5.218356e-07 0 30 90 255 
9.747307 2.14269 17.69995 0.98072 0.1954183 3.0956e-07 0 30 90 255 
9.891632 1.172015 -3.051758e-05 0.9951522 0.09834749 4.78582e-07 0 30 90 255 
9.940117 0.1918683 -17.70001 0.9999999 0.0003347006 2.155293e-07 0 30 90 255 
9.940117 0.1918592 -3.051758e-05 1 0.0003347053 4.310894e-07 0 30 90 255 
9.892296 -0.7883198 -17.70001 0.9952173 -0.09768581 1.65043e-07 0 30 90 255 
9.892281 -0.7883286 -3.051758e-05 0.9952173 -0.09768583 3.800317e-07 0 30 90 255 
9.748627 -1.7591 -17.70001 0.98085 -0.1947645 1.114802e-07 0 30 90 255 
9.51049 -2.711114 -35.39999 0.8861338 -0.2680909 -0.3780135 0 30 90 255 
9.51049 -2.711124 -17.70001 0.9570377 -0.2899636 5.924011e-08 0 30 90 255 
9.180191 -3.635213 -35.39999 0.8556661 -0.3536441 -0.3778511 0 30 90 255 
9.180191 -3.635222 -17.70001 0.9240069 -0.3823759 1.134915e-08 0 30 90 255 
8.760902 -4.522486 -35.39999 0.8169464 -0.4358132 -0.3777108 0 30 90 255 
8.760902 -4.522495 -17.70001 0.8820784 -0.4711027 -4.547403e-08 0 30 90 255 
8.25666 -5.36439 -35.39999 0.7703446 -0.5138042 -0.3775904 0 30 90 255 
8.25666 -5.364398 -17.70001 0.8316555 -0.555292 -1.049934e-07 0 30 90 255 
7.67234 -6.152815 -35.39999 0.7163048 -0.5868629 -0.3774909 0 30 90 255 
7.67234 -6.152824 -17.70001 0.7732233 -0.6341339 -1.579424e-07 0 30 90 255 
7.013557 -6.880171 -35.39999 0.6553457 -0.6542835 -0.3774059 0 30 90 255 
7.013557 -6.880179 -17.70002 0.7073426 -0.7068709 -2.190098e-07 0 30 90 255 
6.286621 -7.53945 -35.39999 0.5880574 -0.7154071 -0.3773345 0 30 90 255 
6.286621 -7.539458 -17.70002 0.6346506 -0.7727993 -2.684224e-07 0 30 90 255 
5.498596 -8.124305 -35.39999 0.5150863 -0.7696417 -0.3772769 0 30 90 255 
5.498596 -8.124314 -17.70002 0.5558481 -0.8312839 -2.945469e-07 0 30 90 255 
4.657021 -8.629103 -35.39999 0.4371344 -0.8164619 -0.3772313 0 30 90 255 
4.082634 -8.249444 -35.99999 0.172292 -0.3514994 -0.9201977 0 30 90 255 
3.770035 -9.048984 -35.39999 0.3549573 -0.8554119 -0.3771946 0 30 90 255 
3.207733 -8.625243 -35.99999 0.1358777 -0.3670794 -0.920212 0 30 90 255 
2.299286 -8.910604 -35.99999 0.09808699 -0.3789034 -0.9202235 0 30 90 255 
1.366646 -9.102593 -35.99999 0.05930613 -0.3868579 -0.9202303 0 30 90 255 
0.4193573 -9.199244 -36 0.01992472 -0.3908607 -0.9202341 0 30 90 255 
-0.5328598 -9.199553 -36 -0.01966148 -0.3908738 -0.9202343 0 30 90 255 
-1.480209 -9.103543 -36 -0.05904581 -0.3868961 -0.920231 0 30 90 255 
-2.412979 -8.912173 -36 -0.09783425 -0.3789682 -0.9202237 0 30 90 255 
-3.321609 -8.627423 -36 -0.1356312 -0.3671685 -0.9202127 0 30 90 255 
-4.19677 -8.252209 -36 -0.1720574 -0.3516144 -0.9201975 0 30 90 255 
-5.02948 -7.79038 -36 -0.2067402 -0.3324616 -0.9201781 0 30 90 255 
-6.808563 -3.710831 -35.99999 0.4716371 0.272511 -0.8386276 0 30 90 255 
-5.811165 -7.246677 -36 -0.2393322 -0.3099027 -0.9201524 0 30 90 255 
-6.533867 -6.626679 -36 -0.2694986 -0.2841589 -0.9201218 0 30 90 255 
-7.190163 -5.936747 -36 -0.2969324 -0.2554926 -0.9200841 0 30 90 255 
-7.77327 -5.183961 -35.99999 -0.3213576 -0.2241886 -0.9200374 0 30 90 255 
-8.277168 -4.376046 -35.99999 -0.3425116 -0.1905593 -0.9199853 0 30 90 255 
-8.696869 -3.521293 -35.99999 -0.360198 -0.1549432 -0.9199185 0 30 90 255 
-9.027863 -2.628471 -35.99999 -0.3742104 -0.1176916 -0.9198453 0 30 90 255 
-9.266869 -1.706744 -35.99999 -0.3844109 -0.07918492 -0.9197598 0 30 90 255 
-9.411369 -0.7655678 -35.99999 -0.3906906 -0.03980923 -0.9196609 0 30 90 255 
-9.459869 0.1853993 -35.99999 -0.3928463 -0.0001315765 -0.9196042 0 30 90 255 
-9.411964 1.136398 -35.99999 -0.3907193 0.03954943 -0.9196599 0 30 90 255 
-9.268066 2.07767 -35.99999 -0.3844672 0.07893112 -0.919758 0 30 90 255 
-9.02977 2.999557 -35.99998 -0.3742885 0.1174463 -0.9198448 0 30 90 255 
-9.630264 3.08819 -35.39999 -0.886134 0.2680918 -0.3780124 0 30 90 255 
-9.868362 2.136166 -35.39999 -0.9080588 0.1799885 -0.3781977 0 30 90 255 
-9.868362 2.136158 -17.70001 -0.98085 0.1947645 -1.126175e-07 0 30 90 255 
-10.01207 1.165377 -17.70001 -0.9952174 0.09768581 -1.65225e-07 0 30 90 255 
-10.01207 1.165368 -3.051758e-05 -0.9952174 0.09768581 -3.796347e-07 0 30 90 255 
-10.05987 0.1851803 -3.051758e-05 -1 -0.0003346997 -4.312088e-07 0 30 90 255 
-10.05987 0.1851712 17.69994 -1 -0.0003346956 -2.15769e-07 0 30 90 255 
-10.01147 -0.7949927 35.39992 -0.921174 -0.0907936 0.3784111 0 30 90 255 
-10.01147 -0.7949836 17.69994 -0.9951522 -0.09834749 -2.642568e-07 0 30 90 255 
-9.867065 -1.765677 35.39992 -0.9079382 -0.1805938 0.3781987 0 30 90 255 
-9.411369 -0.7656038 35.99992 -0.3906918 -0.03980988 0.9196604 0 30 90 255 
-9.266869 -1.70678 35.99992 -0.3844124 -0.07918781 0.9197589 0 30 90 255 
-9.027863 -2.628507 35.99992 -0.3742127 -0.1176993 0.9198434 0 30 90 255 
-8.696869 -3.521329 35.99992 -0.3601981 -0.1549433 0.9199185 0 30 90 255 
-8.277267 -4.376083 35.99992 -0.3425117 -0.1905594 0.9199853 0 30 90 255 
-7.77327 -5.183997 35.99992 -0.3213527 -0.2241919 0.9200383 0 30 90 255 
-7.190163 -5.936783 35.99991 -0.2969298 -0.2554954 0.9200842 0 30 90 255 
-6.533867 -6.626715 35.99991 -0.2694985 -0.2841587 0.920122 0 30 90 255 
-5.811264 -7.246714 35.99991 -0.2393317 -0.3099024 0.9201527 0 30 90 255 
-5.029495 -7.790416 35.99991 -0.206739 -0.3324603 0.9201789 0 30 90 255 
-4.196785 -8.252245 35.99991 -0.172056 -0.3516119 0.9201988 0 30 90 255 
-3.321625 -8.62746 35.99991 -0.1356303 -0.3671661 0.9202139 0 30 90 255 
-2.412994 -8.912213 35.99991 -0.09783258 -0.378968 0.9202239 0 30 90 255 
-1.480217 -9.103574 35.99991 -0.05904609 -0.386898 0.9202302 0 30 90 255 
-0.5328674 -9.199594 35.99991 -0.01966156 -0.3908756 0.9202335 0 30 90 255 
0.419342 -9.199274 35.99991 0.01991793 -0.3908625 0.9202335 0 30 90 255 
1.366631 -9.102624 35.99992 0.05930244 -0.3868568 0.920231 0 30 90 255 
2.299271 -8.910634 35.99992 0.0980859 -0.3789015 0.9202243 0 30 90 255 
3.20771 -8.625279 35.99992 0.135877 -0.3670773 0.9202129 0 30 90 255 
4.082611 -8.249481 35.99992 0.1722911 -0.3514979 0.9201984 0 30 90 255 
3.770027 -9.049014 35.39992 0.3549578 -0.855412 0.377194 0 30 90 255 
4.657013 -8.629138 35.39992 0.4371343 -0.8164623 0.3772306 0 30 90 255 
5.498581 -8.124341 35.39992 0.5150861 -0.7696421 0.3772764 0 30 90 255 
4.657013 -8.629129 17.69994 0.4716909 -0.881764 -3.488429e-07 0 30 90 255 
5.498581 -8.124331 17.69994 0.5558481 -0.8312839 -2.952569e-07 0 30 90 255 
6.286613 -7.539486 35.39992 0.5880577 -0.7154071 0.377334 0 30 90 255 
6.286613 -7.539477 17.69994 0.6346502 -0.7727996 -2.483374e-07 0 30 90 255 
7.013535 -6.880206 35.39992 0.6553457 -0.6542836 0.3774056 0 30 90 255 
7.013535 -6.880198 17.69994 0.7073426 -0.7068709 -2.087007e-07 0 30 90 255 
7.672325 -6.152851 35.39992 0.7163043 -0.5868648 0.377489 0 30 90 255 
7.672325 -6.152842 17.69994 0.7732233 -0.6341339 -1.501958e-07 0 30 90 255 
8.256653 -5.364425 35.39992 0.7703454 -0.5138052 0.3775873 0 30 90 255 
8.256653 -5.364416 17.69994 0.8316555 -0.555292 -9.003374e-08 0 30 90 255 
8.760887 -4.522521 35.39992 0.8169476 -0.4358139 0.3777075 0 30 90 255 
8.760887 -4.522513 17.69994 0.8820784 -0.4711027 -3.834156e-08 0 30 90 255 
9.180176 -3.635248 35.39992 0.8556672 -0.3536448 0.3778479 0 30 90 255 
9.180176 -3.63524 17.69994 0.9240069 -0.3823758 6.788479e-09 0 30 90 255 
9.510475 -2.71115 35.39992 0.886135 -0.2680918 0.37801 0 30 90 255 
9.510475 -2.711141 17.69994 0.9570377 -0.2899635 5.565046e-08 0 30 90 255 
9.748604 -1.759127 35.39992 0.9080592 -0.179989 0.3781963 0 30 90 255 
9.748604 -1.759118 17.69994 0.98085 -0.1947645 1.121768e-07 0 30 90 255 
9.892281 -0.7883468 35.39993 0.9212332 -0.09018189 0.3784132 0 30 90 255 
9.892281 -0.7883377 17.69994 0.9952174 -0.09768582 1.652484e-07 0 30 90 255 
9.940102 0.1918412 35.39993 0.9255928 0.0003097925 0.3785208 0 30 90 255 
9.891624 1.171997 35.39993 0.9211732 0.09079212 0.3784134 0 30 90 255 
9.940102 0.1918503 17.69995 0.9999999 0.0003346993 2.157682e-07 0 30 90 255 
9.891624 1.172006 17.69995 0.9951522 0.09834749 2.640271e-07 0 30 90 255 
9.747307 2.142681 35.39993 0.9079358 0.1805926 0.3782049 0 30 90 255 
9.508537 3.094545 35.39993 0.885952 0.2686875 0.3780161 0 30 90 255 
9.748611 -1.759109 -3.051758e-05 0.98085 -0.1947645 3.256705e-07 0 30 90 255 
9.510483 -2.711132 -3.051758e-05 0.9570377 -0.2899637 2.680064e-07 0 30 90 255 
9.180183 -3.63523 -3.051758e-05 0.9240069 -0.3823757 1.991917e-07 0 30 90 255 
8.760895 -4.522504 -3.051758e-05 0.8820785 -0.4711026 1.335136e-07 0 30 90 255 
8.25666 -5.364408 -3.051758e-05 0.8316555 -0.555292 7.424504e-08 0 30 90 255 
7.672333 -6.152833 -3.808737e-05 0.7732234 -0.6341338 8.70247e-09 0 30 90 255 
7.013542 -6.880189 -3.808737e-05 0.7073423 -0.7068712 -4.728879e-08 0 30 90 255 
6.286621 -7.539468 -3.808737e-05 0.6346503 -0.7727994 -1.12368e-07 0 30 90 255 
5.498581 -8.124323 -3.808737e-05 0.5558484 -0.8312837 -1.851182e-07 0 30 90 255 
4.657021 -8.629111 -17.70002 0.4716906 -0.8817642 -3.385235e-07 0 30 90 255 
4.657021 -8.629121 -3.808737e-05 0.4716905 -0.8817642 -2.362625e-07 0 30 90 255 
3.770035 -9.048994 -17.70002 0.3829927 -0.9237514 -3.894112e-07 0 30 90 255 
2.846161 -9.379893 -35.39999 0.2693457 -0.8861137 -0.3771676 0 30 90 255 
2.846161 -9.379904 -17.70002 0.2906045 -0.9568433 -4.271385e-07 0 30 90 255 
1.894295 -9.618664 -35.4 0.1811292 -0.9082674 -0.3771506 0 30 90 255 
1.894295 -9.618673 -17.70002 0.1954175 -0.9807202 -4.598748e-07 0 30 90 255 
0.9236145 -9.762983 -35.4 0.09116171 -0.9216595 -0.3771383 0 30 90 255 
0.9236145 -9.762994 -17.70002 0.09834973 -0.9951519 -4.75187e-07 0 30 90 255 
-0.05654907 -9.811463 -35.4 0.0003099006 -0.9261578 -0.3771359 0 30 90 255 
-0.05654907 -9.811474 -17.70002 0.0003336951 -0.9999999 -4.848479e-07 0 30 90 255 
-1.036728 -9.763634 -35.4 -0.09054419 -0.9217199 -0.3771395 0 30 90 255 
-1.036728 -9.763643 -17.70002 -0.0976844 -0.9952174 -5.174693e-07 0 30 90 255 
-2.007515 -9.619964 -35.4 -0.1805226 -0.9083881 -0.3771507 0 30 90 255 
-2.007515 -9.619974 -17.70002 -0.1947627 -0.9808504 -5.304796e-07 0 30 90 255 
-2.959534 -9.381834 -35.4 -0.268754 -0.8862934 -0.3771678 0 30 90 255 
-2.959534 -9.381844 -17.70002 -0.2899648 -0.9570373 -5.397402e-07 0 30 90 255 
-3.883636 -9.051534 -35.4 -0.3543855 -0.8556489 -0.3771947 0 30 90 255 
-3.883636 -9.051544 -17.70002 -0.3823748 -0.9240073 -5.544937e-07 0 30 90 255 
-4.770905 -8.632251 -35.4 -0.4365903 -0.8167533 -0.3772306 0 30 90 255 
-4.770905 -8.63226 -17.70002 -0.4711031 -0.8820782 -5.418704e-07 0 30 90 255 
-5.612762 -8.128016 -35.4 -0.5145708 -0.7699867 -0.3772762 0 30 90 255 
-5.612762 -8.128024 -17.70002 -0.5552917 -0.8316557 -5.446585e-07 0 30 90 255 
-6.401268 -7.543687 -35.4 -0.5875812 -0.7157989 -0.3773331 0 30 90 255 
-6.401268 -7.543696 -17.70002 -0.634136 -0.7732215 -5.332597e-07 0 30 90 255 
-7.128563 -6.884893 -35.4 -0.6549113 -0.6547192 -0.3774043 0 30 90 255 
-7.128563 -6.884902 -17.70002 -0.7068727 -0.7073408 -4.953485e-07 0 30 90 255 
-7.787865 -6.157978 -35.4 -0.7159109 -0.5873441 -0.37749 0 30 90 255 
-7.787865 -6.157987 -17.70002 -0.772797 -0.6346533 -4.743091e-07 0 30 90 255 
-8.372765 -5.369943 -35.39999 -0.7699994 -0.5143207 -0.3775913 0 30 90 255 
-8.372765 -5.369952 -17.70002 -0.8312823 -0.5558506 -4.487008e-07 0 30 90 255 
-8.877563 -4.528376 -35.39999 -0.8166561 -0.4363563 -0.3777115 0 30 90 255 
-8.877563 -4.528384 -17.70002 -0.8817658 -0.4716874 -4.275666e-07 0 30 90 255 
-9.297363 -3.641383 -35.39999 -0.8554314 -0.3542139 -0.3778487 0 30 90 255 
-9.297363 -3.641392 -17.70002 -0.923752 -0.3829912 -3.933387e-07 0 30 90 255 
-9.628365 -2.717506 -35.39999 -0.8859531 -0.2686874 -0.3780135 0 30 90 255 
-9.628365 -2.717514 -17.70002 -0.9568419 -0.290609 -3.496525e-07 0 30 90 255 
-9.867065 -1.765641 -35.39999 -0.9079364 -0.180593 -0.3782032 0 30 90 255 
-9.867065 -1.76565 -17.70002 -0.98072 -0.1954183 -3.100754e-07 0 30 90 255 
-10.01137 -0.7949567 -35.39999 -0.9211731 -0.09079282 -0.3784137 0 30 90 255 
-10.01137 -0.7949657 -17.70002 -0.9951522 -0.09834749 -2.64049e-07 0 30 90 255 
-10.05987 0.1851983 -35.39999 -0.9255928 -0.0003098065 -0.3785206 0 30 90 255 
-10.01207 1.165386 -35.39999 -0.9212335 0.09018125 -0.3784127 0 30 90 255 
-10.05987 0.1851892 -17.70001 -1 -0.0003347039 -2.156878e-07 0 30 90 255 
-10.01137 -0.7949748 -3.808737e-05 -0.9951522 -0.09834748 -4.786279e-07 0 30 90 255 
-9.867065 -1.765668 17.69994 -0.98072 -0.1954183 -3.092836e-07 0 30 90 255 
-9.867065 -1.765659 -3.808737e-05 -0.98072 -0.1954183 -5.222778e-07 0 30 90 255 
-9.628365 -2.717532 17.69994 -0.9568419 -0.290609 -3.510554e-07 0 30 90 255 
-9.628365 -2.717541 35.39992 -0.8859533 -0.2686888 0.3780121 0 30 90 255 
-9.297363 -3.641419 35.39992 -0.8554314 -0.3542139 0.3778486 0 30 90 255 
-9.297363 -3.64141 17.69994 -0.923752 -0.3829912 -3.929311e-07 0 30 90 255 
-8.877563 -4.528411 35.39992 -0.8166562 -0.4363564 0.3777113 0 30 90 255 
-8.877563 -4.528403 17.69994 -0.8817658 -0.4716874 -4.243352e-07 0 30 90 255 
-8.372765 -5.369978 35.39992 -0.7699991 -0.5143212 0.3775913 0 30 90 255 
-8.372765 -5.36997 17.69994 -0.8312823 -0.5558505 -4.569829e-07 0 30 90 255 
-7.787865 -6.158014 35.39992 -0.7159095 -0.5873451 0.3774909 0 30 90 255 
-7.787865 -6.158005 17.69994 -0.7727971 -0.6346533 -4.914066e-07 0 30 90 255 
-7.128563 -6.884929 35.39992 -0.6549109 -0.6547183 0.3774067 0 30 90 255 
-7.128563 -6.88492 17.69994 -0.7068724 -0.7073411 -5.240476e-07 0 30 90 255 
-6.401268 -7.543723 35.39992 -0.5875806 -0.7157981 0.3773356 0 30 90 255 
-6.401268 -7.543714 17.69994 -0.634136 -0.7732216 -5.316401e-07 0 30 90 255 
-5.612869 -8.128051 35.39992 -0.5145704 -0.7699858 0.3772788 0 30 90 255 
-5.612869 -8.128041 17.69994 -0.5552917 -0.8316557 -5.341245e-07 0 30 90 255 
-4.77092 -8.632287 35.39992 -0.4365898 -0.8167525 0.377233 0 30 90 255 
-4.77092 -8.632277 17.69994 -0.4711031 -0.8820782 -5.412689e-07 0 30 90 255 
-3.883659 -9.051574 35.39992 -0.3543848 -0.8556482 0.3771971 0 30 90 255 
-3.883659 -9.051563 17.69994 -0.3823752 -0.9240072 -5.436081e-07 0 30 90 255 
-2.959549 -9.381874 35.39992 -0.2687522 -0.8862927 0.3771705 0 30 90 255 
-2.959549 -9.381864 17.69994 -0.2899648 -0.9570373 -5.388312e-07 0 30 90 255 
-2.007523 -9.620004 35.39991 -0.1805214 -0.9083894 0.377148 0 30 90 255 
-2.007523 -9.619994 17.69994 -0.1947627 -0.9808504 -5.314112e-07 0 30 90 255 
-1.036743 -9.763674 35.39991 -0.09054427 -0.9217209 0.3771372 0 30 90 255 
-1.036743 -9.763663 17.69994 -0.09768443 -0.9952174 -5.165244e-07 0 30 90 255 
-0.0565567 -9.811503 35.39991 0.0003080845 -0.926159 0.3771333 0 30 90 255 
-0.0565567 -9.811494 17.69994 0.0003341652 -0.9999999 -5.117873e-07 0 30 90 255 
0.9236069 -9.763023 35.39992 0.09115841 -0.9216595 0.3771391 0 30 90 255 
0.9236069 -9.763014 17.69994 0.09834971 -0.9951519 -4.883075e-07 0 30 90 255 
1.894287 -9.618704 35.39992 0.181129 -0.9082683 0.3771485 0 30 90 255 
1.894287 -9.618693 17.69994 0.1954174 -0.9807202 -4.596253e-07 0 30 90 255 
2.846146 -9.379933 35.39992 0.2693456 -0.8861139 0.3771673 0 30 90 255 
2.846146 -9.379924 17.69994 0.2906046 -0.9568433 -4.275094e-07 0 30 90 255 
3.770027 -9.049004 17.69994 0.3829923 -0.9237515 -3.7804e-07 0 30 90 255 
2.846153 -9.379913 -3.808737e-05 0.2906046 -0.9568433 -3.509788e-07 0 30 90 255 
1.894287 -9.618684 -3.808737e-05 0.1954175 -0.9807202 -4.051387e-07 0 30 90 255 
3.770027 -9.049004 -3.808737e-05 0.3829924 -0.9237515 -2.959866e-07 0 30 90 255 
0.9236069 -9.763003 -3.808737e-05 0.0983497 -0.9951519 -4.530454e-07 0 30 90 255 
-0.05654907 -9.811483 -3.808737e-05 0.0003341752 -0.9999999 -5.117163e-07 0 30 90 255 
-1.036736 -9.763654 -3.808737e-05 -0.09768441 -0.9952174 -5.516425e-07 0 30 90 255 
-2.007523 -9.619984 -3.808737e-05 -0.1947627 -0.9808504 -5.857596e-07 0 30 90 255 
-2.959549 -9.381854 -3.808737e-05 -0.2899648 -0.9570373 -6.152254e-07 0 30 90 255 
-3.883644 -9.051554 -3.808737e-05 -0.3823752 -0.9240072 -6.255293e-07 0 30 90 255 
-4.77092 -8.632269 -3.808737e-05 -0.4711028 -0.8820783 -6.537264e-07 0 30 90 255 
-5.612762 -8.128034 -3.808737e-05 -0.5552917 -0.8316557 -6.545909e-07 0 30 90 255 
-6.401268 -7.543705 -3.808737e-05 -0.6341363 -0.7732213 -6.482882e-07 0 30 90 255 
-7.128563 -6.884911 -3.808737e-05 -0.7068727 -0.7073408 -6.571063e-07 0 30 90 255 
-7.787865 -6.157995 -3.808737e-05 -0.772797 -0.6346533 -6.579597e-07 0 30 90 255 
-8.372765 -5.36996 -3.808737e-05 -0.8312821 -0.5558507 -6.495259e-07 0 30 90 255 
-8.877563 -4.528394 -3.808737e-05 -0.8817658 -0.4716875 -6.226399e-07 0 30 90 255 
-9.297363 -3.641401 -3.808737e-05 -0.923752 -0.3829911 -5.908387e-07 0 30 90 255 
-9.628365 -2.717523 -3.808737e-05 -0.9568419 -0.2906091 -5.633818e-07 0 30 90 255 
9.177612 4.018422 35.39993 0.8554302 0.3542134 0.3778518 0 30 90 255 
8.757744 4.905416 35.39993 0.8166551 0.4363557 0.3777145 0 30 90 255 
8.252945 5.746982 35.39993 0.7699978 0.5143207 0.3775946 0 30 90 255 
7.668083 6.535017 35.39993 0.7159109 0.5873438 0.3774904 0 30 90 255 
7.008804 7.261933 35.39993 0.6549115 0.6547191 0.3774042 0 30 90 255 
-7.133369 7.257229 -3.051758e-05 -0.7073423 0.7068712 5.692625e-08 0 30 90 255 
-7.792068 6.529873 -3.051758e-05 -0.7732233 0.6341339 -8.702512e-09 0 30 90 255 
-8.376465 5.741464 -35.39999 -0.7703438 0.5138054 -0.3775904 0 30 90 255 
-8.880669 4.899552 -17.70001 -0.8820784 0.4711026 4.630106e-08 0 30 90 255 
-9.299965 4.01227 -3.051758e-05 -0.9240069 0.3823758 -2.037466e-07 0 30 90 255 
3 0 1 2 
3 3 0 2 
3 4 3 2 
3 4 2 5 
3 5 6 4 
3 6 7 4 
3 4 7 8 
3 8 9 4 
3 4 9 10 
3 4 10 11 
3 11 12 4 
3 4 12 13 
3 4 13 14 
3 14 15 4 
3 4 15 16 
3 4 16 17 
3 16 18 17 
3 17 18 19 
3 17 19 3 
3 18 20 19 
3 19 20 21 
3 19 21 0 
3 0 21 22 
3 23 22 21 
3 23 21 24 
3 25 23 24 
3 25 24 26 
3 27 25 26 
3 27 26 28 
3 29 27 28 
3 29 28 30 
3 6 29 30 
3 30 31 6 
3 6 31 32 
3 6 32 33 
3 33 34 6 
3 6 34 35 
3 34 36 35 
3 35 36 37 
3 35 37 38 
3 7 35 38 
3 7 38 39 
3 39 40 7 
3 7 40 41 
3 7 41 42 
3 42 43 7 
3 7 43 44 
3 7 44 45 
3 45 46 7 
3 7 46 47 
3 7 47 48 
3 7 48 49 
3 49 48 50 
3 49 50 51 
3 51 52 49 
3 49 52 53 
3 49 53 54 
3 54 55 49 
3 49 55 56 
3 49 56 57 
3 57 58 49 
3 49 58 59 
3 49 59 60 
3 49 60 61 
3 8 49 61 
3 61 62 8 
3 8 62 63 
3 8 63 64 
3 64 65 8 
3 8 65 66 
3 8 66 67 
3 67 68 8 
3 8 68 69 
3 8 69 70 
3 70 71 8 
3 8 71 72 
3 71 73 72 
3 72 73 74 
3 72 74 9 
3 9 74 75 
3 74 76 75 
3 75 76 77 
3 75 77 78 
3 10 75 78 
3 78 77 79 
3 78 79 80 
3 11 78 80 
3 80 79 81 
3 80 81 82 
3 12 80 82 
3 82 81 83 
3 82 83 84 
3 13 82 84 
3 84 83 85 
3 84 85 86 
3 14 84 86 
3 86 85 87 
3 86 87 88 
3 15 86 88 
3 88 87 89 
3 88 89 18 
3 90 89 87 
3 90 87 91 
3 92 90 91 
3 92 91 93 
3 94 92 93 
3 94 93 95 
3 32 94 95 
3 95 93 96 
3 95 96 97 
3 33 95 97 
3 97 96 98 
3 97 98 36 
3 36 98 99 
3 98 100 99 
3 99 100 101 
3 99 101 102 
3 37 99 102 
3 37 102 103 
3 103 102 104 
3 103 104 105 
3 39 103 105 
3 105 104 106 
3 105 106 107 
3 40 105 107 
3 107 106 108 
3 107 108 109 
3 41 107 109 
3 109 108 110 
3 109 110 111 
3 42 109 111 
3 111 110 112 
3 111 112 113 
3 43 111 113 
3 113 112 114 
3 113 114 115 
3 44 113 115 
3 115 114 116 
3 115 116 117 
3 45 115 117 
3 117 116 118 
3 117 118 119 
3 46 117 119 
3 119 118 120 
3 119 120 121 
3 47 119 121 
3 121 120 122 
3 121 122 123 
3 48 121 123 
3 123 122 124 
3 123 124 125 
3 50 123 125 
3 125 124 126 
3 125 126 127 
3 51 125 127 
3 127 126 128 
3 127 128 129 
3 52 127 129 
3 129 128 130 
3 129 130 131 
3 53 129 131 
3 131 130 132 
3 131 132 133 
3 54 131 133 
3 133 132 134 
3 133 134 135 
3 55 133 135 
3 135 134 136 
3 135 136 137 
3 56 135 137 
3 137 136 138 
3 137 138 139 
3 57 137 139 
3 139 138 140 
3 139 140 141 
3 58 139 141 
3 141 140 142 
3 141 142 143 
3 59 141 143 
3 59 143 144 
3 59 144 145 
3 145 144 146 
3 145 146 147 
3 60 145 147 
3 147 148 60 
3 60 148 149 
3 60 149 150 
3 150 151 60 
3 60 151 152 
3 60 152 153 
3 153 154 60 
3 60 154 155 
3 60 155 156 
3 60 156 157 
3 157 156 158 
3 158 159 157 
3 157 159 160 
3 157 160 161 
3 161 162 157 
3 157 162 163 
3 157 163 164 
3 164 165 157 
3 157 165 166 
3 157 166 167 
3 167 168 157 
3 157 168 169 
3 157 169 61 
3 61 169 170 
3 61 170 171 
3 171 172 61 
3 61 172 173 
3 61 173 174 
3 174 175 61 
3 61 175 176 
3 61 176 177 
3 177 178 61 
3 177 179 178 
3 178 179 180 
3 178 180 62 
3 62 180 181 
3 180 182 181 
3 181 182 183 
3 181 183 184 
3 63 181 184 
3 184 183 185 
3 184 185 186 
3 64 184 186 
3 186 185 187 
3 186 187 188 
3 65 186 188 
3 188 187 189 
3 188 189 190 
3 66 188 190 
3 190 189 191 
3 190 191 192 
3 67 190 192 
3 192 191 193 
3 192 193 194 
3 68 192 194 
3 194 193 195 
3 194 195 196 
3 69 194 196 
3 196 195 197 
3 196 197 198 
3 70 196 198 
3 198 197 199 
3 198 199 73 
3 73 199 200 
3 201 200 199 
3 201 199 202 
3 108 201 202 
3 203 200 201 
3 106 203 201 
3 203 76 200 
3 204 76 203 
3 104 204 203 
3 202 199 197 
3 202 197 205 
3 110 202 205 
3 205 197 195 
3 205 195 206 
3 112 205 206 
3 206 195 193 
3 206 193 207 
3 114 206 207 
3 207 193 191 
3 207 191 208 
3 116 207 208 
3 208 191 189 
3 208 189 209 
3 118 208 209 
3 209 189 187 
3 209 187 210 
3 120 209 210 
3 210 187 185 
3 210 185 211 
3 122 210 211 
3 211 185 183 
3 211 183 212 
3 124 211 212 
3 212 183 182 
3 212 182 213 
3 126 212 213 
3 213 182 214 
3 213 214 215 
3 128 213 215 
3 215 214 216 
3 215 216 217 
3 130 215 217 
3 217 216 218 
3 217 218 219 
3 132 217 219 
3 219 218 220 
3 219 220 221 
3 134 219 221 
3 221 220 222 
3 221 222 223 
3 136 221 223 
3 223 222 224 
3 223 224 225 
3 138 223 225 
3 225 224 226 
3 225 226 227 
3 140 225 227 
3 227 226 228 
3 227 228 229 
3 142 227 229 
3 142 229 230 
3 230 229 231 
3 230 231 232 
3 144 230 232 
3 232 231 233 
3 232 233 234 
3 146 232 234 
3 146 234 235 
3 235 234 236 
3 235 236 237 
3 148 235 237 
3 237 236 238 
3 237 238 239 
3 149 237 239 
3 239 238 240 
3 239 240 241 
3 150 239 241 
3 241 240 242 
3 241 242 243 
3 151 241 243 
3 243 242 244 
3 243 244 245 
3 152 243 245 
3 245 244 246 
3 245 246 247 
3 153 245 247 
3 247 246 248 
3 247 248 249 
3 154 247 249 
3 249 248 250 
3 249 250 251 
3 155 249 251 
3 155 251 252 
3 252 251 253 
3 252 253 254 
3 156 252 254 
3 254 255 156 
3 156 255 256 
3 156 256 257 
3 257 258 156 
3 156 258 259 
3 156 259 260 
3 260 261 156 
3 156 261 262 
3 156 262 263 
3 156 263 264 
3 264 263 265 
3 264 265 266 
3 266 267 264 
3 264 267 268 
3 264 268 269 
3 269 270 264 
3 264 270 271 
3 264 271 272 
3 272 273 264 
3 264 273 274 
3 264 274 6 
3 6 274 275 
3 6 275 276 
3 276 277 6 
3 276 278 277 
3 277 278 27 
3 276 279 278 
3 279 280 278 
3 278 280 25 
3 279 281 280 
3 281 282 280 
3 280 282 23 
3 281 283 282 
3 283 284 282 
3 282 284 22 
3 1 22 284 
3 1 284 285 
3 285 284 286 
3 285 286 287 
3 288 285 287 
3 288 287 289 
3 5 288 289 
3 289 290 5 
3 5 290 291 
3 5 291 292 
3 292 293 5 
3 5 293 294 
3 5 294 295 
3 295 296 5 
3 5 296 297 
3 5 297 158 
3 158 264 5 
3 158 297 298 
3 158 298 299 
3 299 300 158 
3 158 300 301 
3 158 301 302 
3 302 303 158 
3 158 303 304 
3 158 304 305 
3 305 306 158 
3 158 306 307 
3 306 308 307 
3 307 308 309 
3 307 309 159 
3 159 309 310 
3 309 311 310 
3 310 311 312 
3 310 312 313 
3 160 310 313 
3 313 312 314 
3 313 314 315 
3 161 313 315 
3 315 314 316 
3 315 316 317 
3 162 315 317 
3 317 316 318 
3 317 318 319 
3 163 317 319 
3 319 318 320 
3 319 320 321 
3 164 319 321 
3 321 320 322 
3 321 322 323 
3 165 321 323 
3 323 322 324 
3 323 324 325 
3 166 323 325 
3 325 324 326 
3 325 326 327 
3 167 325 327 
3 327 326 328 
3 327 328 329 
3 168 327 329 
3 329 328 330 
3 329 330 331 
3 169 329 331 
3 169 331 332 
3 331 333 332 
3 332 333 334 
3 332 334 335 
3 170 332 335 
3 335 334 228 
3 335 228 336 
3 171 335 336 
3 231 334 333 
3 331 330 333 
3 233 333 330 
3 233 330 337 
3 337 330 328 
3 337 328 338 
3 236 337 338 
3 338 328 326 
3 338 326 339 
3 238 338 339 
3 339 326 324 
3 339 324 340 
3 240 339 340 
3 340 324 322 
3 340 322 341 
3 242 340 341 
3 341 322 320 
3 341 320 342 
3 244 341 342 
3 342 320 318 
3 342 318 343 
3 246 342 343 
3 343 318 316 
3 343 316 344 
3 248 343 344 
3 344 316 314 
3 344 314 345 
3 250 344 345 
3 250 345 346 
3 346 345 347 
3 346 347 348 
3 253 346 348 
3 253 348 349 
3 349 348 350 
3 349 350 351 
3 255 349 351 
3 351 350 352 
3 351 352 353 
3 256 351 353 
3 353 352 354 
3 353 354 355 
3 257 353 355 
3 355 354 356 
3 355 356 357 
3 258 355 357 
3 357 356 358 
3 357 358 359 
3 259 357 359 
3 359 358 360 
3 359 360 361 
3 260 359 361 
3 361 360 362 
3 361 362 363 
3 261 361 363 
3 363 362 364 
3 363 364 365 
3 262 363 365 
3 365 364 366 
3 365 366 367 
3 263 365 367 
3 367 366 368 
3 367 368 369 
3 265 367 369 
3 369 368 370 
3 369 370 371 
3 266 369 371 
3 371 370 372 
3 371 372 373 
3 267 371 373 
3 373 372 374 
3 373 374 375 
3 268 373 375 
3 375 374 376 
3 375 376 377 
3 269 375 377 
3 377 376 378 
3 377 378 379 
3 270 377 379 
3 379 378 380 
3 379 380 381 
3 271 379 381 
3 381 380 382 
3 381 382 383 
3 272 381 383 
3 383 382 384 
3 383 384 385 
3 273 383 385 
3 385 384 386 
3 385 386 387 
3 385 387 274 
3 274 387 388 
3 387 389 388 
3 388 389 281 
3 387 386 389 
3 386 390 389 
3 389 390 283 
3 390 286 283 
3 390 391 286 
3 392 391 390 
3 392 393 391 
3 394 391 393 
3 394 393 395 
3 290 394 395 
3 395 393 396 
3 395 396 397 
3 291 395 397 
3 397 396 398 
3 397 398 399 
3 292 397 399 
3 399 398 400 
3 399 400 401 
3 293 399 401 
3 401 400 402 
3 401 402 403 
3 294 401 403 
3 403 402 404 
3 403 404 405 
3 295 403 405 
3 405 404 406 
3 405 406 407 
3 296 405 407 
3 407 406 408 
3 407 408 409 
3 297 407 409 
3 409 408 410 
3 409 410 411 
3 298 409 411 
3 411 410 412 
3 411 412 413 
3 299 411 413 
3 413 412 414 
3 413 414 415 
3 300 413 415 
3 415 414 416 
3 415 416 417 
3 301 415 417 
3 417 416 418 
3 417 418 419 
3 302 417 419 
3 419 418 420 
3 419 420 421 
3 303 419 421 
3 421 420 422 
3 421 422 423 
3 304 421 423 
3 423 422 424 
3 423 424 425 
3 305 423 425 
3 425 424 426 
3 425 426 308 
3 308 426 427 
3 428 427 426 
3 428 426 429 
3 352 428 429 
3 430 427 428 
3 350 430 428 
3 430 311 427 
3 347 311 430 
3 429 426 424 
3 429 424 431 
3 354 429 431 
3 431 424 422 
3 431 422 432 
3 356 431 432 
3 432 422 420 
3 432 420 433 
3 358 432 433 
3 433 420 418 
3 433 418 434 
3 360 433 434 
3 434 418 416 
3 434 416 435 
3 362 434 435 
3 435 416 414 
3 435 414 436 
3 364 435 436 
3 436 414 412 
3 436 412 437 
3 366 436 437 
3 437 412 410 
3 437 410 438 
3 368 437 438 
3 438 410 408 
3 438 408 439 
3 370 438 439 
3 439 408 406 
3 439 406 440 
3 372 439 440 
3 440 406 404 
3 440 404 441 
3 374 440 441 
3 441 404 402 
3 441 402 442 
3 376 441 442 
3 442 402 400 
3 442 400 443 
3 378 442 443 
3 443 400 398 
3 443 398 444 
3 380 443 444 
3 444 398 396 
3 444 396 445 
3 382 444 445 
3 445 396 393 
3 287 391 394 
3 445 393 392 
3 384 445 392 
3 386 392 390 
3 384 392 386 
3 382 445 384 
3 380 444 382 
3 378 443 380 
3 376 442 378 
3 374 441 376 
3 372 440 374 
3 370 439 372 
3 368 438 370 
3 366 437 368 
3 364 436 366 
3 362 435 364 
3 360 434 362 
3 358 433 360 
3 356 432 358 
3 354 431 356 
3 352 429 354 
3 350 428 352 
3 348 430 350 
3 348 347 430 
3 345 312 347 
3 345 314 312 
3 347 312 311 
3 309 427 311 
3 308 427 309 
3 306 425 308 
3 305 425 306 
3 304 423 305 
3 303 421 304 
3 302 419 303 
3 301 417 302 
3 300 415 301 
3 299 413 300 
3 298 411 299 
3 297 409 298 
3 296 407 297 
3 295 405 296 
3 294 403 295 
3 293 401 294 
3 292 399 293 
3 291 397 292 
3 290 395 291 
3 289 394 290 
3 289 287 394 
3 2 285 288 
3 287 286 391 
3 283 286 284 
3 389 283 281 
3 388 281 279 
3 275 388 279 
3 275 279 276 
3 274 388 275 
3 273 385 274 
3 272 383 273 
3 271 381 272 
3 270 379 271 
3 269 377 270 
3 268 375 269 
3 267 373 268 
3 266 371 267 
3 265 369 266 
3 263 367 265 
3 262 365 263 
3 261 363 262 
3 260 361 261 
3 259 359 260 
3 258 357 259 
3 257 355 258 
3 256 353 257 
3 255 351 256 
3 254 349 255 
3 254 253 349 
3 251 346 253 
3 251 250 346 
3 248 344 250 
3 246 343 248 
3 244 342 246 
3 242 341 244 
3 240 340 242 
3 238 339 240 
3 236 338 238 
3 234 337 236 
3 234 233 337 
3 231 333 233 
3 229 334 231 
3 229 228 334 
3 336 228 226 
3 336 226 446 
3 172 336 446 
3 446 226 224 
3 446 224 447 
3 173 446 447 
3 447 224 222 
3 447 222 448 
3 174 447 448 
3 448 222 220 
3 448 220 449 
3 175 448 449 
3 449 220 218 
3 449 218 450 
3 176 449 450 
3 450 218 216 
3 450 216 179 
3 179 216 214 
3 180 214 182 
3 179 214 180 
3 177 450 179 
3 176 450 177 
3 175 449 176 
3 174 448 175 
3 173 447 174 
3 172 446 173 
3 171 336 172 
3 170 335 171 
3 169 332 170 
3 168 329 169 
3 167 327 168 
3 166 325 167 
3 165 323 166 
3 164 321 165 
3 163 319 164 
3 162 317 163 
3 161 315 162 
3 160 313 161 
3 159 310 160 
3 158 307 159 
3 156 264 158 
3 156 155 252 
3 154 249 155 
3 153 247 154 
3 152 245 153 
3 151 243 152 
3 150 241 151 
3 149 239 150 
3 148 237 149 
3 147 235 148 
3 147 146 235 
3 144 232 146 
3 143 230 144 
3 143 142 230 
3 140 227 142 
3 138 225 140 
3 136 223 138 
3 134 221 136 
3 132 219 134 
3 130 217 132 
3 128 215 130 
3 126 213 128 
3 124 212 126 
3 122 211 124 
3 120 210 122 
3 118 209 120 
3 116 208 118 
3 114 207 116 
3 112 206 114 
3 110 205 112 
3 108 202 110 
3 106 201 108 
3 104 203 106 
3 102 204 104 
3 102 101 204 
3 101 77 204 
3 100 79 101 
3 98 451 100 
3 451 81 100 
3 96 451 98 
3 96 452 451 
3 452 83 451 
3 93 452 96 
3 453 92 94 
3 31 453 94 
3 453 454 92 
3 28 454 453 
3 93 91 452 
3 91 85 452 
3 454 90 92 
3 454 455 90 
3 26 455 454 
3 455 89 90 
3 455 20 89 
3 24 20 455 
3 91 87 85 
3 452 85 83 
3 451 83 81 
3 100 81 79 
3 101 79 77 
3 204 77 76 
3 74 200 76 
3 73 200 74 
3 71 198 73 
3 70 198 71 
3 69 196 70 
3 68 194 69 
3 67 192 68 
3 66 190 67 
3 65 188 66 
3 64 186 65 
3 63 184 64 
3 62 181 63 
3 61 178 62 
3 61 60 157 
3 60 59 145 
3 58 141 59 
3 57 139 58 
3 56 137 57 
3 55 135 56 
3 54 133 55 
3 53 131 54 
3 52 129 53 
3 51 127 52 
3 50 125 51 
3 48 123 50 
3 47 121 48 
3 46 119 47 
3 45 117 46 
3 44 115 45 
3 43 113 44 
3 42 111 43 
3 41 109 42 
3 40 107 41 
3 39 105 40 
3 38 103 39 
3 38 37 103 
3 36 99 37 
3 34 97 36 
3 33 97 34 
3 32 95 33 
3 31 94 32 
3 30 453 31 
3 6 277 29 
3 30 28 453 
3 277 27 29 
3 28 26 454 
3 278 25 27 
3 26 24 455 
3 280 23 25 
3 282 22 23 
3 24 21 20 
3 18 89 20 
3 16 88 18 
3 15 88 16 
3 14 86 15 
3 13 84 14 
3 12 82 13 
3 11 80 12 
3 10 78 11 
3 9 75 10 
3 8 72 9 
3 7 49 8 
3 6 35 7 
3 264 6 5 
3 5 2 288 
3 17 3 4 
3 3 19 0 
3 2 1 285 
3 0 22 1 
