ply
format ascii 1.0
comment VCGLIB generated
element vertex 167
property float x
property float y
property float z
property float nx
property float ny
property float nz
property uchar red
property uchar green
property uchar blue
property uchar alpha
element face 330
property list uchar int vertex_indices
end_header
-2.178307 -3.244816 5.079998 -0.3457571 -0.4236968 0.8372175 83 83 83 255 
-2.898191 -2.655599 5.079998 -0.5140925 -0.2967637 0.8047611 83 83 83 255 
-2.968184 -2.655599 4.973647 -0.7872836 -0.3814054 0.4844733 83 83 83 255 
-0.2725067 -4.687599 -5.080002 -0.2822935 -0.119891 -0.951807 83 83 83 255 
-0.7796626 -4.687599 -4.52776 -0.7120621 -0.3902226 -0.5836899 83 83 83 255 
-0.8651869 -4.260916 -5.080002 -0.3095815 -0.4166805 -0.8547144 83 83 83 255 
-1.448598 -3.820165 -5.080002 -0.3277059 -0.4185877 -0.8469907 83 83 83 255 
-2.178334 -3.244794 -5.080002 -0.3442903 -0.4233136 -0.8380153 83 83 83 255 
-0.8936155 -4.687599 -4.372327 -0.7445773 -0.3842227 -0.5458732 83 83 83 255 
-1.263064 -4.687599 -3.868395 -0.7737166 -0.388368 -0.5005326 83 83 83 255 
-0.2725067 -4.687599 5.079998 -0.2822948 -0.1198905 0.9518067 83 83 83 255 
-0.8654151 -4.260744 5.079998 -0.3095836 -0.4166781 0.8547148 83 83 83 255 
-0.7796626 -4.687599 4.527756 -0.7129359 -0.3892273 0.5832877 83 83 83 255 
-1.448598 -3.820165 5.079998 -0.3292725 -0.4200748 0.8456458 83 83 83 255 
-0.8936155 -4.687599 4.372324 -0.7444371 -0.3831726 0.5468019 83 83 83 255 
-1.263064 -4.687599 3.868392 -0.7737247 -0.3883417 0.5005406 83 83 83 255 
-1.42027 -4.687599 3.592288 -0.8031543 -0.3818685 0.4572961 83 83 83 255 
-3.437971 -2.655599 4.148555 -0.802998 -0.3823013 0.4572089 83 83 83 255 
-1.667598 -4.687599 3.157904 -0.8260771 -0.387309 0.4093756 83 83 83 255 
-3.488299 -2.655599 4.060163 -0.8296006 -0.3778189 0.4111152 83 83 83 255 
-1.841059 -4.687599 2.750558 -0.8503379 -0.3818492 0.3621006 83 83 83 255 
-3.870252 -2.655599 3.163206 -0.8501654 -0.3823014 0.3620284 83 83 83 255 
-1.987917 -4.687599 2.405684 -0.867604 -0.3873306 0.3118306 83 83 83 255 
-3.900139 -2.655599 3.093023 -0.871302 -0.3778192 0.313186 83 83 83 255 
-2.148936 -4.687599 1.861246 -0.8862504 -0.3819149 0.262109 83 83 83 255 
-4.183838 -2.655599 2.13377 -0.8860982 -0.382301 0.2620608 83 83 83 255 
-2.21979 -4.687599 1.621672 -0.8976249 -0.3874328 0.2101559 83 83 83 255 
-4.198259 -2.655599 2.085006 -0.9014892 -0.3778192 0.2111159 83 83 83 255 
-2.338712 -4.687599 0.9392462 -0.9104148 -0.3820655 0.158653 83 83 83 255 
-4.374359 -2.655599 1.074483 -0.9103215 -0.3823003 0.1586232 83 83 83 255 
-2.36015 -4.687599 0.8162284 -0.9157407 -0.3876139 0.1057092 83 83 83 255 
-4.378723 -2.655599 1.049437 -0.9197623 -0.3778211 0.1062475 83 83 83 255 
-2.407144 -4.687599 -1.907349e-06 -0.9217752 -0.3877247 -3.932808e-08 83 83 83 255 
-4.439143 -2.655599 -1.907349e-06 -0.9258795 -0.3778191 -4.947329e-08 83 83 83 255 
-2.36015 -4.687599 -0.8162317 -0.9157405 -0.3876145 -0.105709 83 83 83 255 
-4.378723 -2.655599 -1.04944 -0.9197623 -0.3778203 -0.106251 83 83 83 255 
-2.338712 -4.687599 -0.93925 -0.910415 -0.3820654 -0.1586528 83 83 83 255 
-4.374359 -2.655599 -1.074486 -0.9103205 -0.3823013 -0.1586262 83 83 83 255 
-2.21979 -4.687599 -1.621675 -0.897625 -0.3874325 -0.210156 83 83 83 255 
-4.198259 -2.655599 -2.08501 -0.901489 -0.3778194 -0.2111163 83 83 83 255 
-2.148936 -4.687599 -1.861249 -0.8862505 -0.3819149 -0.2621091 83 83 83 255 
-4.183838 -2.655599 -2.133773 -0.8860982 -0.3823009 -0.2620613 83 83 83 255 
-1.987917 -4.687599 -2.405687 -0.867604 -0.3873305 -0.3118306 83 83 83 255 
-3.900139 -2.655599 -3.093026 -0.8713028 -0.3778192 -0.3131838 83 83 83 255 
-1.841059 -4.687599 -2.750562 -0.8503378 -0.3818492 -0.3621005 83 83 83 255 
-3.870252 -2.655599 -3.16321 -0.8501664 -0.382301 -0.3620262 83 83 83 255 
-1.667598 -4.687599 -3.157907 -0.8260773 -0.3873088 -0.4093753 83 83 83 255 
-3.488299 -2.655599 -4.060166 -0.8296014 -0.3778192 -0.4111134 83 83 83 255 
-3.437971 -2.655599 -4.14856 -0.8029991 -0.3823012 -0.4572072 83 83 83 255 
-1.42027 -4.687599 -3.592292 -0.8031542 -0.3818687 -0.4572962 83 83 83 255 
-2.968184 -2.655599 -4.97365 -0.7886308 -0.3798641 -0.4834923 83 83 83 255 
-2.898191 -2.655599 -5.080002 -0.5141925 -0.2931108 -0.8060348 83 83 83 255 
-2.178307 3.013615 -5.080002 -0.345529 0.4240026 -0.8371568 83 83 83 255 
-2.898191 2.4244 -5.080002 -0.5140915 0.2967645 -0.8047614 83 83 83 255 
-2.968184 2.4244 -4.97365 -0.7872829 0.3814055 -0.4844745 83 83 83 255 
-0.2725067 4.456402 5.079998 -0.1191028 0.706253 0.6978691 83 83 83 255 
-0.7796626 4.456402 4.527756 -0.3029906 0.9203092 0.2474422 83 83 83 255 
-0.8651869 4.029715 5.079998 -0.3095805 0.4166785 0.8547157 83 83 83 255 
-1.448598 3.588964 5.079998 -0.3277051 0.4185868 0.8469915 83 83 83 255 
-2.178334 3.013594 5.079998 -0.3442889 0.4233128 0.8380164 83 83 83 255 
-1.263064 4.456402 3.868392 -0.3306964 0.9193156 0.2133047 83 83 83 255 
-2.898191 2.4244 5.079998 -0.5141932 0.2931108 0.8060344 83 83 83 255 
-1.263064 4.456402 -3.868395 -0.3307698 0.9190782 -0.2142115 83 83 83 255 
-1.448598 3.588964 -5.080002 -0.331739 0.4218318 -0.8438052 83 83 83 255 
-0.7796626 4.456402 -4.52776 -0.3043119 0.9198877 -0.2473879 83 83 83 255 
-0.8654151 4.029547 -5.080002 -0.3095848 0.416678 -0.8547144 83 83 83 255 
-0.2725067 4.456402 -5.080002 -0.1191036 0.7062528 -0.6978692 83 83 83 255 
-3.437971 2.4244 -4.14856 -0.8029992 0.382301 -0.457207 83 83 83 255 
-1.667598 4.456402 -3.157907 -0.3534912 0.9188895 -0.1751746 83 83 83 255 
-3.488299 2.4244 -4.060166 -0.8296015 0.3778191 -0.4111132 83 83 83 255 
-3.870252 2.4244 -3.16321 -0.8501665 0.3823009 -0.3620262 83 83 83 255 
-1.987917 4.456402 -2.405687 -0.3712596 0.9188896 -0.1334474 83 83 83 255 
-3.900139 2.4244 -3.093026 -0.8713028 0.3778192 -0.3131836 83 83 83 255 
-4.183838 2.4244 -2.133773 -0.8860982 0.3823009 -0.2620612 83 83 83 255 
-2.21979 4.456402 -1.621675 -0.384122 0.9188896 -0.08995698 83 83 83 255 
-4.198259 2.4244 -2.08501 -0.9014892 0.377819 -0.2111161 83 83 83 255 
-4.374359 2.4244 -1.074486 -0.9103212 0.3823003 -0.1586246 83 83 83 255 
-2.36015 4.456402 -0.8162317 -0.3919076 0.9188898 -0.04527748 83 83 83 255 
-4.378723 2.4244 -1.04944 -0.9197623 0.3778208 -0.106249 83 83 83 255 
-2.407144 4.456402 -1.907349e-06 -0.3945153 0.9188894 7.745195e-09 83 83 83 255 
-4.439143 2.4244 -1.907349e-06 -0.9258795 0.3778189 6.509642e-09 83 83 83 255 
-2.36015 4.456402 0.8162284 -0.3919074 0.9188899 0.04527744 83 83 83 255 
-4.378723 2.4244 1.049437 -0.9197627 0.3778202 0.1062477 83 83 83 255 
-4.374359 2.4244 1.074483 -0.9103212 0.382301 0.1586231 83 83 83 255 
-2.21979 4.456402 1.621672 -0.3841223 0.9188895 0.08995709 83 83 83 255 
-4.198259 2.4244 2.085006 -0.9014891 0.3778192 0.2111162 83 83 83 255 
-4.183838 2.4244 2.13377 -0.8860983 0.3823006 0.2620612 83 83 83 255 
-1.987917 4.456402 2.405684 -0.3712597 0.9188896 0.1334475 83 83 83 255 
-3.900139 2.4244 3.093023 -0.8713021 0.3778191 0.3131861 83 83 83 255 
-3.870252 2.4244 3.163206 -0.8501654 0.3823013 0.3620284 83 83 83 255 
-1.667598 4.456402 3.157904 -0.3534914 0.9188894 0.1751747 83 83 83 255 
-3.488299 2.4244 4.060163 -0.8296007 0.3778189 0.4111152 83 83 83 255 
-3.437971 2.4244 4.148555 -0.8029981 0.3823012 0.4572089 83 83 83 255 
-2.968184 2.4244 4.973647 -0.7886314 0.3798639 0.4834916 83 83 83 255 
-0.2725067 -16.6256 -5.080002 -0.3183658 -0.6258601 -0.7119989 83 83 83 255 
-0.9004509 -16.6256 -4.377338 -0.5682781 -0.692845 -0.4438759 83 83 83 255 
-1.429982 -16.6256 -3.597821 -0.6219313 -0.6929238 -0.3647715 83 83 83 255 
-1.851803 -16.6256 -2.755137 -0.6647026 -0.6929379 -0.2792984 83 83 83 255 
-2.158507 -16.6256 -1.86408 -0.6958512 -0.6928883 -0.1889365 83 83 83 255 
-2.34471 -16.6256 -0.9402952 -0.7148354 -0.6927753 -0.09525053 83 83 83 255 
-2.407144 -16.6256 -1.907349e-06 -0.7212239 -0.6927021 -1.199921e-08 83 83 83 255 
-2.34471 -16.6256 0.9402919 -0.7148355 -0.6927753 0.09525056 83 83 83 255 
-2.158507 -16.6256 1.864076 -0.6958512 -0.6928883 0.1889366 83 83 83 255 
-1.851803 -16.6256 2.755133 -0.6647027 -0.6929379 0.2792983 83 83 83 255 
-1.429982 -16.6256 3.597818 -0.6219315 -0.6929235 0.3647715 83 83 83 255 
-0.9004509 -16.6256 4.377335 -0.5682781 -0.6928449 0.4438761 83 83 83 255 
-0.2725067 -16.6256 5.079998 -0.3183656 -0.6258602 0.7119989 83 83 83 255 
-0.2725067 16.3944 -5.080002 -0.3186132 0.6256935 -0.7120346 83 83 83 255 
-0.2725067 6.996401 -5.080002 -0.3186132 -0.6256934 -0.7120346 83 83 83 255 
-0.9004509 6.996401 -4.377338 -0.568588 -0.6924947 -0.4440258 83 83 83 255 
-0.9004509 16.3944 -4.377338 -0.568588 0.6924947 -0.4440258 83 83 83 255 
-1.429982 6.996401 -3.597821 -0.6223022 -0.6924946 -0.3649537 83 83 83 255 
-1.429982 16.3944 -3.597821 -0.6223022 0.6924946 -0.3649537 83 83 83 255 
-1.851803 6.996401 -2.755137 -0.6650907 -0.6924946 -0.2794738 83 83 83 255 
-1.851803 16.3944 -2.755137 -0.6650907 0.6924946 -0.2794738 83 83 83 255 
-2.158507 6.996401 -1.86408 -0.6962021 -0.6924945 -0.1890872 83 83 83 255 
-2.158507 16.3944 -1.86408 -0.6962021 0.6924945 -0.1890872 83 83 83 255 
-2.34471 6.996401 -0.9402952 -0.7150899 -0.6924948 -0.0953809 83 83 83 255 
-2.34471 16.3944 -0.9402952 -0.7150899 0.6924947 -0.0953809 83 83 83 255 
-2.407144 6.996401 -1.907349e-06 -0.7214231 -0.6924946 -1.54322e-08 83 83 83 255 
-2.407144 16.3944 -1.907349e-06 -0.7214231 0.6924946 -8.573448e-09 83 83 83 255 
-2.34471 6.996401 0.9402919 -0.7150899 -0.6924947 0.09538091 83 83 83 255 
-2.34471 16.3944 0.9402919 -0.71509 0.6924947 0.09538093 83 83 83 255 
-2.158507 6.996401 1.864076 -0.6962021 -0.6924946 0.1890872 83 83 83 255 
-2.158507 16.3944 1.864076 -0.696202 0.6924946 0.1890872 83 83 83 255 
-1.851803 6.996401 2.755133 -0.6650907 -0.6924946 0.2794738 83 83 83 255 
-1.851803 16.3944 2.755133 -0.6650907 0.6924946 0.2794738 83 83 83 255 
-1.429982 6.996401 3.597818 -0.6223024 -0.6924946 0.3649536 83 83 83 255 
-1.429982 16.3944 3.597818 -0.6223023 0.6924947 0.3649536 83 83 83 255 
-0.9004509 6.996401 4.377335 -0.568588 -0.6924946 0.4440259 83 83 83 255 
-0.9004509 16.3944 4.377335 -0.5685879 0.6924948 0.4440258 83 83 83 255 
-0.2725067 6.996401 5.079998 -0.3186131 -0.6256935 0.7120347 83 83 83 255 
-0.2725067 16.3944 5.079998 -0.3186131 0.6256935 0.7120348 83 83 83 255 
9.68222 16.3944 5.079998 0.3186131 0.6256936 0.7120346 83 83 83 255 
4.797888 6.996401 5.079998 -0.2950719 -0.2565022 0.9204017 83 83 83 255 
9.68222 -16.6256 5.079998 0.3186132 -0.6256934 0.7120347 83 83 83 255 
2.013494 -12.8156 5.079998 -0.301988 0.3473975 0.8877603 83 83 83 255 
0.9974933 -12.8156 5.079998 0.3015113 0.3015113 0.904534 83 83 83 255 
0.9974933 4.456402 5.079998 0.5773503 0.5773503 0.5773503 83 83 83 255 
0.9974933 4.456402 -5.080002 0.5773506 0.5773505 -0.5773497 83 83 83 255 
4.797888 6.996401 -5.080002 -0.295072 -0.2565012 -0.9204019 83 83 83 255 
9.68222 16.3944 -5.080002 0.3186133 0.6256934 -0.7120346 83 83 83 255 
2.013494 -12.8156 -5.080002 -0.301988 0.3473974 -0.8877603 83 83 83 255 
9.68222 -16.6256 -5.080002 0.3186133 -0.6256936 -0.7120345 83 83 83 255 
0.9974933 -12.8156 -5.080002 0.3015113 0.3015113 -0.904534 83 83 83 255 
10.31016 -16.6256 4.377335 0.5685881 -0.6924947 0.4440256 83 83 83 255 
10.31016 16.3944 4.377335 0.5685881 0.6924946 0.4440257 83 83 83 255 
10.83969 -16.6256 3.597818 0.6223023 -0.6924948 0.3649533 83 83 83 255 
10.83969 16.3944 3.597818 0.6223023 0.6924947 0.3649534 83 83 83 255 
11.26151 -16.6256 2.755133 0.6650906 -0.6924947 0.2794737 83 83 83 255 
11.26151 16.3944 2.755133 0.6650906 0.6924947 0.2794737 83 83 83 255 
11.56822 -16.6256 1.864076 0.696202 -0.6924946 0.1890871 83 83 83 255 
11.56822 16.3944 1.864076 0.696202 0.6924946 0.1890872 83 83 83 255 
11.75442 -16.6256 0.9402919 0.7150896 -0.6924949 0.09538151 83 83 83 255 
11.75442 16.3944 0.9402919 0.7150896 0.692495 0.09538153 83 83 83 255 
11.81686 -16.6256 -1.907349e-06 0.7214234 -0.6924942 -2.229098e-08 83 83 83 255 
11.81686 16.3944 -1.907349e-06 0.7214235 0.6924942 -6.858763e-09 83 83 83 255 
11.75442 -16.6256 -0.9402952 0.7150896 -0.692495 -0.09538151 83 83 83 255 
11.75442 16.3944 -0.9402952 0.7150896 0.6924949 -0.0953815 83 83 83 255 
11.56822 -16.6256 -1.86408 0.696202 -0.6924946 -0.1890872 83 83 83 255 
11.56822 16.3944 -1.86408 0.696202 0.6924946 -0.1890871 83 83 83 255 
11.26151 -16.6256 -2.755137 0.6650906 -0.6924948 -0.2794738 83 83 83 255 
11.26151 16.3944 -2.755137 0.6650906 0.6924948 -0.2794738 83 83 83 255 
10.83969 -16.6256 -3.597821 0.6223022 -0.6924947 -0.3649535 83 83 83 255 
10.83969 16.3944 -3.597821 0.6223022 0.6924947 -0.3649535 83 83 83 255 
10.31016 -16.6256 -4.377338 0.568588 -0.6924948 -0.4440256 83 83 83 255 
10.31016 16.3944 -4.377338 0.5685879 0.692495 -0.4440254 83 83 83 255 
3 0 1 2 
3 3 4 5 
3 5 4 6 
3 6 4 7 
3 7 4 8 
3 7 8 9 
3 10 11 12 
3 12 11 13 
3 12 13 14 
3 14 13 0 
3 14 0 15 
3 15 0 2 
3 15 2 16 
3 16 2 17 
3 16 17 18 
3 18 17 19 
3 18 19 20 
3 20 19 21 
3 20 21 22 
3 22 21 23 
3 22 23 24 
3 24 23 25 
3 24 25 26 
3 26 25 27 
3 26 27 28 
3 28 27 29 
3 28 29 30 
3 30 29 31 
3 30 31 32 
3 32 31 33 
3 32 33 34 
3 34 33 35 
3 34 35 36 
3 36 35 37 
3 36 37 38 
3 38 37 39 
3 38 39 40 
3 40 39 41 
3 40 41 42 
3 42 41 43 
3 42 43 44 
3 44 43 45 
3 44 45 46 
3 45 47 46 
3 46 47 48 
3 46 48 49 
3 49 48 50 
3 49 50 9 
3 9 50 51 
3 9 51 7 
3 52 53 54 
3 55 56 57 
3 57 56 58 
3 58 56 59 
3 59 56 60 
3 59 60 61 
3 52 62 63 
3 63 62 64 
3 63 64 65 
3 65 64 66 
3 52 54 62 
3 62 54 67 
3 62 67 68 
3 67 69 68 
3 68 69 70 
3 68 70 71 
3 70 72 71 
3 71 72 73 
3 71 73 74 
3 73 75 74 
3 74 75 76 
3 74 76 77 
3 77 76 78 
3 77 78 79 
3 79 78 80 
3 79 80 81 
3 80 82 81 
3 81 82 83 
3 81 83 84 
3 83 85 84 
3 84 85 86 
3 84 86 87 
3 86 88 87 
3 87 88 89 
3 87 89 90 
3 89 91 90 
3 90 91 92 
3 90 92 60 
3 60 92 93 
3 60 93 61 
3 1 61 2 
3 2 61 93 
3 2 93 17 
3 17 93 92 
3 17 92 19 
3 19 92 91 
3 19 91 21 
3 21 91 89 
3 21 89 23 
3 23 89 88 
3 23 88 25 
3 25 88 86 
3 25 86 27 
3 27 86 85 
3 27 85 29 
3 29 85 83 
3 29 83 31 
3 31 83 82 
3 31 82 33 
3 33 82 80 
3 33 80 35 
3 35 80 78 
3 35 78 37 
3 37 78 76 
3 37 76 39 
3 39 76 75 
3 39 75 41 
3 41 75 73 
3 41 73 43 
3 43 73 72 
3 43 72 45 
3 45 72 70 
3 45 70 47 
3 47 70 69 
3 47 69 48 
3 48 69 67 
3 48 67 50 
3 50 67 54 
3 50 54 51 
3 51 54 53 
3 3 94 4 
3 4 94 95 
3 4 95 8 
3 8 95 9 
3 9 95 96 
3 9 96 49 
3 49 96 46 
3 46 96 97 
3 46 97 44 
3 44 97 42 
3 42 97 98 
3 42 98 40 
3 40 98 38 
3 38 98 99 
3 38 99 36 
3 36 99 34 
3 34 99 100 
3 34 100 32 
3 32 100 30 
3 30 100 101 
3 30 101 28 
3 28 101 26 
3 26 101 102 
3 26 102 24 
3 24 102 22 
3 22 102 103 
3 22 103 20 
3 20 103 18 
3 18 103 104 
3 18 104 16 
3 16 104 15 
3 15 104 105 
3 15 105 14 
3 14 105 12 
3 12 105 106 
3 12 106 10 
3 107 108 109 
3 107 109 110 
3 110 109 111 
3 110 111 112 
3 112 111 113 
3 112 113 114 
3 114 113 115 
3 114 115 116 
3 116 115 117 
3 116 117 118 
3 118 117 119 
3 118 119 120 
3 120 119 121 
3 120 121 122 
3 122 121 123 
3 122 123 124 
3 124 123 125 
3 124 125 126 
3 126 125 127 
3 126 127 128 
3 128 127 129 
3 128 129 130 
3 130 129 131 
3 130 131 132 
3 132 131 133 
3 133 131 134 
3 133 134 135 
3 135 134 136 
3 135 136 106 
3 106 136 137 
3 106 137 10 
3 61 1 59 
3 59 1 0 
3 59 0 13 
3 137 138 10 
3 10 138 55 
3 10 55 57 
3 57 58 10 
3 10 58 59 
3 10 59 11 
3 11 59 13 
3 6 7 139 
3 108 107 140 
3 140 107 141 
3 140 141 142 
3 142 141 143 
3 142 143 144 
3 143 94 144 
3 144 94 3 
3 144 3 139 
3 139 3 5 
3 139 5 6 
3 51 53 7 
3 7 53 52 
3 66 139 65 
3 65 139 7 
3 65 7 63 
3 63 7 52 
3 133 135 145 
3 133 145 146 
3 146 145 147 
3 146 147 148 
3 148 147 149 
3 148 149 150 
3 150 149 151 
3 150 151 152 
3 152 151 153 
3 152 153 154 
3 154 153 155 
3 154 155 156 
3 156 155 157 
3 156 157 158 
3 158 157 159 
3 158 159 160 
3 160 159 161 
3 160 161 162 
3 162 161 163 
3 162 163 164 
3 164 163 165 
3 164 165 166 
3 166 165 143 
3 166 143 141 
3 150 152 130 
3 150 130 148 
3 166 141 107 
3 152 154 130 
3 130 154 156 
3 130 156 158 
3 120 122 166 
3 166 122 124 
3 166 124 126 
3 126 128 166 
3 166 128 130 
3 166 130 164 
3 132 133 130 
3 130 133 146 
3 130 146 148 
3 158 160 130 
3 130 160 162 
3 130 162 164 
3 107 110 166 
3 166 110 112 
3 166 112 114 
3 114 116 166 
3 166 116 118 
3 166 118 120 
3 149 147 96 
3 103 102 147 
3 102 101 147 
3 147 101 100 
3 147 100 99 
3 135 106 145 
3 145 106 105 
3 145 105 147 
3 147 105 104 
3 147 104 103 
3 99 98 147 
3 147 98 97 
3 147 97 96 
3 94 143 95 
3 95 143 165 
3 95 165 96 
3 96 165 163 
3 96 163 161 
3 161 159 96 
3 96 159 157 
3 96 157 155 
3 155 153 96 
3 96 153 151 
3 96 151 149 
3 56 55 138 
3 138 139 56 
3 56 139 66 
3 56 66 64 
3 71 74 56 
3 56 74 77 
3 56 77 60 
3 64 62 56 
3 56 62 68 
3 56 68 71 
3 81 84 79 
3 79 84 87 
3 79 87 77 
3 77 87 90 
3 77 90 60 
3 139 138 144 
3 144 138 137 
3 144 137 142 
3 142 137 136 
3 142 136 140 
3 140 136 134 
3 109 108 140 
3 134 131 140 
3 140 131 129 
3 140 129 127 
3 127 125 140 
3 140 125 123 
3 140 123 121 
3 121 119 140 
3 140 119 117 
3 140 117 115 
3 115 113 140 
3 140 113 111 
3 140 111 109 
