ply
format ascii 1.0
comment VCGLIB generated
element vertex 433
property float x
property float y
property float z
property float nx
property float ny
property float nz
property uchar red
property uchar green
property uchar blue
property uchar alpha
element face 866
property list uchar int vertex_indices
end_header
21.59008 21.55985 18.07146 0.1751701 0.9270231 0.3315776 0 45 135 255 
21.59008 21.55985 16.36263 0.1751696 0.9270228 -0.3315786 0 45 135 255 
19.2426 21.55985 17.21705 -0.2920039 0.9564171 5.790553e-07 0 45 135 255 
21.59008 21.55985 24.72875 0.2634766 0.7238956 0.6376169 0 45 135 255 
21.59008 21.55985 22.13546 0.3288497 0.9035061 -0.2748355 0 45 135 255 
12.56155 21.55985 24.72875 -0.02752331 0.7068389 0.7068389 0 45 135 255 
13.65973 21.55985 19.24905 5.938131e-08 0.8928853 -0.4502843 0 45 135 255 
5.582954 21.55985 22.18875 -0.2920038 0.9564172 1.316036e-07 0 45 135 255 
7.629395e-05 21.55985 24.22075 -4.615546e-07 0.8928854 -0.450284 0 45 135 255 
-1.395641 21.55985 24.72875 -0.2681703 0.8783531 0.3957026 0 45 135 255 
1.395794 21.55985 24.72875 0.2681695 0.8783526 0.3957041 0 45 135 255 
13.65973 21.55985 15.18505 -1.619491e-08 0.8928852 0.4502844 0 45 135 255 
5.582954 21.55985 12.24534 -0.2920038 0.9564171 -2.105657e-07 0 45 135 255 
13.65973 19.52785 17.21705 -3.896313e-08 1 -1.019036e-07 0 45 135 255 
7.629395e-05 19.52785 12.24534 -3.596596e-08 1 4.315916e-07 0 45 135 255 
8.076847 21.55985 17.21705 0.2920038 0.9564172 -5.264143e-08 0 45 135 255 
7.629395e-05 21.55985 14.27734 -3.778811e-08 0.8928853 -0.4502843 0 45 135 255 
7.629395e-05 21.55985 20.15675 -3.036545e-08 0.8928851 0.4502847 0 45 135 255 
-8.076696 21.55985 17.21705 -0.2920042 0.9564171 5.264146e-08 0 45 135 255 
7.629395e-05 19.52785 22.18875 -1.019036e-07 1 1.318752e-07 0 45 135 255 
-13.65956 19.52785 17.21705 -1.198865e-08 1 7.19319e-08 0 45 135 255 
-5.5828 21.55985 22.18875 0.2920039 0.9564172 2.632072e-08 0 45 135 255 
-13.65956 21.55985 19.24905 -6.477961e-08 0.8928853 -0.4502843 0 45 135 255 
21.59008 21.55985 8.128052 0.1751696 0.9270229 0.3315783 0 45 135 255 
21.59008 21.55985 6.419226 0.1751698 0.9270229 -0.3315782 0 45 135 255 
19.2426 21.55985 7.273638 -0.292004 0.9564171 -3.948109e-07 0 45 135 255 
21.59008 21.55985 12.29863 0.3288496 0.9035063 0.2748352 0 45 135 255 
21.59008 21.55985 12.19205 0.3288497 0.9035061 -0.2748358 0 45 135 255 
13.65973 21.55985 9.305637 1.61949e-08 0.8928852 -0.4502845 0 45 135 255 
-12.56139 21.55985 24.72875 0.02752334 0.7068389 0.706839 0 45 135 255 
-21.58993 21.55985 22.13546 -0.3288496 0.9035061 -0.2748358 0 45 135 255 
-21.58993 21.55985 24.72875 -0.2634766 0.7238956 0.6376169 0 45 135 255 
13.65973 21.55985 5.241638 -2.159321e-08 0.8928851 0.4502845 0 45 135 255 
5.582954 21.55985 2.301933 -0.2920038 0.9564172 1.84245e-07 0 45 135 255 
13.65973 19.52785 7.273638 -4.795463e-08 1 -7.49291e-08 0 45 135 255 
7.629395e-05 19.52785 2.301933 5.994326e-09 1 2.877277e-07 0 45 135 255 
8.076847 21.55985 7.273638 0.2920038 0.9564172 -1.84245e-07 0 45 135 255 
7.629395e-05 21.55985 4.333935 -5.398301e-08 0.8928853 -0.4502842 0 45 135 255 
7.629395e-05 21.55985 10.21334 -3.036545e-08 0.8928851 0.4502847 0 45 135 255 
-8.076696 21.55985 7.273638 -0.2920042 0.9564171 -1.316037e-07 0 45 135 255 
-13.65956 19.52785 7.273638 0 1 -1.198866e-08 0 45 135 255 
-5.5828 21.55985 12.24534 0.2920038 0.9564171 -2.368864e-07 0 45 135 255 
-13.65956 21.55985 9.305637 4.858472e-08 0.8928851 -0.4502845 0 45 135 255 
-24.01157 19.52785 13.44923 -0.5527431 0.8328052 0.03017417 0 45 135 255 
-21.58993 21.55985 12.29863 -0.3288497 0.9035062 0.2748353 0 45 135 255 
-13.65956 21.55985 15.18505 9.784424e-08 0.8928852 0.4502844 0 45 135 255 
-21.58993 21.55985 16.36263 -0.1751696 0.9270228 -0.3315787 0 45 135 255 
-19.24244 21.55985 17.21705 0.2920039 0.9564171 5.790562e-07 0 45 135 255 
13.65973 21.55985 -0.6377716 1.079662e-07 0.8928848 -0.4502852 0 45 135 255 
21.59008 21.55985 2.355225 0.3288496 0.9035062 0.2748354 0 45 135 255 
21.59008 21.55985 2.248644 0.3288496 0.9035062 -0.2748354 0 45 135 255 
21.59008 21.55985 -1.815357 0.1751699 0.9270229 0.331578 0 45 135 255 
21.59008 21.55985 -3.524183 0.1751697 0.9270229 -0.3315782 0 45 135 255 
19.2426 21.55985 -2.669769 -0.2920039 0.9564171 3.158486e-07 0 45 135 255 
-21.58993 21.55985 12.19205 -0.3288498 0.903506 -0.274836 0 45 135 255 
13.65973 21.55985 -4.70177 3.238981e-08 0.8928852 0.4502844 0 45 135 255 
5.582954 21.55985 -7.641474 -0.2920038 0.9564172 1.052829e-07 0 45 135 255 
13.65973 19.52785 -2.669769 2.622518e-08 1 -3.521667e-07 0 45 135 255 
7.629395e-05 19.52785 -7.641474 0 1 0 0 45 135 255 
8.076847 21.55985 -2.669769 0.2920038 0.9564172 2.632071e-08 0 45 135 255 
7.629395e-05 21.55985 -5.609474 -2.699151e-08 0.8928851 -0.4502845 0 45 135 255 
7.629395e-05 21.55985 0.2699337 2.024363e-09 0.8928851 0.4502845 0 45 135 255 
-8.076696 21.55985 -2.669769 -0.2920041 0.9564171 0 0 45 135 255 
-13.65956 19.52785 -2.669769 7.193193e-08 1 -2.877277e-07 0 45 135 255 
-5.5828 21.55985 2.301933 0.2920038 0.9564171 -1.84245e-07 0 45 135 255 
-13.65956 21.55985 -0.6377716 1.24161e-07 0.892885 -0.4502848 0 45 135 255 
-24.01157 19.52785 3.505819 -0.5527433 0.8328052 0.03017417 0 45 135 255 
-21.58993 21.55985 2.355225 -0.3288498 0.9035061 0.2748355 0 45 135 255 
-13.65956 21.55985 5.241638 7.085267e-08 0.8928853 0.4502842 0 45 135 255 
-21.58993 21.55985 6.419226 -0.1751703 0.9270229 -0.3315778 0 45 135 255 
-19.24244 21.55985 7.273638 0.2920038 0.9564171 2.632072e-08 0 45 135 255 
13.65973 21.55985 -10.58118 -5.398302e-09 0.8928851 -0.4502845 0 45 135 255 
21.59008 21.55985 -7.588183 0.3288497 0.9035062 0.2748355 0 45 135 255 
21.59008 21.55985 -7.694765 0.3288497 0.9035062 -0.2748355 0 45 135 255 
21.59008 21.55985 -11.75877 0.1751698 0.9270229 0.3315781 0 45 135 255 
21.59008 21.55985 -13.46759 0.1751697 0.9270229 -0.3315782 0 45 135 255 
19.2426 21.55985 -12.61318 -0.292004 0.9564171 2.368864e-07 0 45 135 255 
-21.58993 21.55985 2.248644 -0.3288498 0.9035061 -0.2748355 0 45 135 255 
13.65973 21.55985 -14.64518 8.097452e-08 0.8928853 0.4502843 0 45 135 255 
5.582954 21.55985 -17.58488 -0.2920038 0.9564172 1.579243e-07 0 45 135 255 
13.65973 19.52785 -12.61318 -1.573511e-08 1 -1.123936e-07 0 45 135 255 
7.629395e-05 19.52785 -17.58488 2.997164e-08 1 -3.596597e-07 0 45 135 255 
8.076847 21.55985 -12.61318 0.2920038 0.9564172 -1.052829e-07 0 45 135 255 
7.629395e-05 21.55985 -15.55288 2.159321e-08 0.892885 -0.4502847 0 45 135 255 
7.629395e-05 21.55985 -9.673474 2.361756e-08 0.8928852 0.4502843 0 45 135 255 
-8.076696 21.55985 -12.61318 -0.2920042 0.9564171 5.264145e-08 0 45 135 255 
-13.65956 19.52785 -12.61318 5.994327e-09 1 1.198865e-07 0 45 135 255 
-5.5828 21.55985 -7.641474 0.2920038 0.9564171 2.632071e-08 0 45 135 255 
-13.65956 21.55985 -10.58118 6.477958e-08 0.8928854 -0.4502841 0 45 135 255 
-24.01157 19.52785 -6.43759 -0.5527431 0.8328053 0.03017413 0 45 135 255 
-21.58993 21.55985 -7.588183 -0.3288498 0.9035061 0.2748355 0 45 135 255 
-13.65956 21.55985 -4.70177 8.367368e-08 0.8928852 0.4502844 0 45 135 255 
-21.58993 21.55985 -3.524183 -0.17517 0.9270229 -0.331578 0 45 135 255 
-19.24244 21.55985 -2.669769 0.2920039 0.9564172 6.843391e-07 0 45 135 255 
-21.58993 21.55985 -7.694765 -0.3288498 0.9035061 -0.2748357 0 45 135 255 
12.56155 21.55985 -20.12488 -0.02752335 0.7068389 -0.706839 0 45 135 255 
21.59008 21.55985 -17.53159 0.3288496 0.9035062 0.2748357 0 45 135 255 
21.59008 21.55985 -20.12488 0.2634765 0.7238955 -0.6376169 0 45 135 255 
7.629395e-05 21.55985 -19.61688 0 0.8928853 0.4502842 0 45 135 255 
-1.395641 21.55985 -20.12488 -0.2681699 0.8783523 -0.3957046 0 45 135 255 
-6.978518 19.52785 -20.12488 0.09357055 0.3731297 -0.9230487 0 45 135 255 
-5.5828 21.55985 -17.58488 0.2920039 0.9564171 7.896215e-08 0 45 135 255 
-12.56139 21.55985 -20.12488 0.0275234 0.706839 -0.7068389 0 45 135 255 
-24.01157 19.52785 -16.381 -0.5527433 0.8328052 0.03017422 0 45 135 255 
-21.58993 21.55985 -17.53159 -0.3288498 0.903506 0.2748356 0 45 135 255 
-13.65956 21.55985 -14.64518 7.557622e-08 0.8928852 0.4502844 0 45 135 255 
-21.58993 21.55985 -13.46759 -0.17517 0.9270229 -0.331578 0 45 135 255 
-19.24244 21.55985 -12.61318 0.2920039 0.9564171 3.948109e-07 0 45 135 255 
-21.58993 21.55985 18.07146 -0.1751701 0.927023 0.3315777 0 45 135 255 
-21.58993 21.55985 8.128052 -0.1751699 0.9270229 0.3315781 0 45 135 255 
-21.58993 21.55985 -1.815357 -0.17517 0.9270229 0.331578 0 45 135 255 
-21.58993 21.55985 -11.75877 -0.17517 0.9270229 0.3315781 0 45 135 255 
-21.58993 21.55985 -20.12488 -0.2634767 0.7238955 -0.6376168 0 45 135 255 
-7.87392 3.779856 -20.12488 -0.3015113 -0.3015113 -0.904534 0 45 135 255 
-7.87392 3.779856 -14.43658 -0.7831939 -0.5917279 0.1909593 0 45 135 255 
-25.39992 3.779856 -20.12488 -0.5773503 -0.5773502 -0.5773503 0 45 135 255 
-25.39992 3.779856 -14.43658 -0.6440713 -0.7279957 0.2349349 0 45 135 255 
4.064077 -3.95591 -3.264448 -0.3904009 -0.9066582 0.1598687 0 45 135 255 
7.874081 -3.840145 -1.94125 0.7272604 -0.6863618 0 0 45 135 255 
4.064077 -3.840145 -1.94125 -0.3904009 -0.920645 -1.38856e-08 0 45 135 255 
7.874081 -3.95591 -0.6180515 0.7272604 -0.6759343 -0.1191855 0 45 135 255 
4.064077 -3.95591 -0.6180515 -0.3904009 -0.9066583 -0.1598684 0 45 135 255 
7.874081 -4.299688 0.6649456 0.7272603 -0.6449691 -0.2347495 0 45 135 255 
4.064077 -4.299688 0.6649456 -0.3904006 -0.8651234 -0.3148791 0 45 135 255 
7.874081 -4.861031 1.86875 0.7272604 -0.5944066 -0.3431809 0 45 135 255 
4.064077 -4.861031 1.86875 -0.3904008 -0.7973019 -0.4603225 0 45 135 255 
7.874081 -5.622887 2.956791 0.7272603 -0.5257835 -0.4411851 0 45 135 255 
4.064077 -5.622887 2.956791 -0.3904009 -0.7052547 -0.5917795 0 45 135 255 
7.874081 -6.562103 3.896008 0.7272602 -0.4411851 -0.5257835 0 45 135 255 
4.064077 -6.562103 3.896008 -0.3904009 -0.5917795 -0.7052547 0 45 135 255 
7.874081 -7.650145 4.657864 0.7272604 -0.3431814 -0.5944064 0 45 135 255 
4.064077 -7.650145 4.657864 -0.3904009 -0.4603231 -0.7973016 0 45 135 255 
7.874081 -8.853952 5.21921 0.7272605 -0.2347497 -0.6449689 0 45 135 255 
4.064077 -8.853952 5.21921 -0.3904008 -0.3148794 -0.8651233 0 45 135 255 
7.874081 -10.13695 5.562986 0.7272605 -0.1191848 -0.6759343 0 45 135 255 
4.064077 -10.13695 5.562986 -0.390401 -0.1598676 -0.9066584 0 45 135 255 
7.874081 -11.46014 5.678749 0.72726 -3.921575e-08 -0.6863621 0 45 135 255 
4.064077 -11.46014 5.678749 -0.3904009 7.573964e-08 -0.920645 0 45 135 255 
7.874081 -12.78334 5.562986 0.7272605 0.1191848 -0.6759344 0 45 135 255 
4.064077 -12.78334 5.562986 -0.3904009 0.1598675 -0.9066585 0 45 135 255 
7.874081 -14.06634 5.21921 0.7272605 0.2347496 -0.6449689 0 45 135 255 
4.064077 -14.06634 5.21921 -0.3904009 0.3148791 -0.8651233 0 45 135 255 
7.874081 -15.27015 4.657864 0.7272604 0.3431811 -0.5944065 0 45 135 255 
4.064077 -15.27015 4.657864 -0.390401 0.460323 -0.7973016 0 45 135 255 
7.874081 -16.35819 3.896008 0.7272602 0.4411851 -0.5257837 0 45 135 255 
4.064077 -16.35819 3.896008 -0.3904007 0.5917794 -0.7052549 0 45 135 255 
7.874081 -17.29741 2.956791 0.7272604 0.5257836 -0.4411847 0 45 135 255 
4.064077 -17.29741 2.956791 -0.3904008 0.7052551 -0.5917791 0 45 135 255 
7.874081 -18.05926 1.86875 0.7272604 0.5944068 -0.3431806 0 45 135 255 
4.064077 -18.05926 1.86875 -0.3904011 0.7973021 -0.4603223 0 45 135 255 
7.874081 -18.6206 0.6649456 0.7272605 0.6449691 -0.234749 0 45 135 255 
4.064077 -18.6206 0.6649456 -0.3904014 0.8651234 -0.3148784 0 45 135 255 
7.874081 -18.96438 -0.6180515 0.7272599 0.6759347 -0.1191861 0 45 135 255 
4.064077 -18.96438 -0.6180515 -0.3904009 0.9066582 -0.159869 0 45 135 255 
7.874081 -19.08015 -1.94125 0.7272609 0.6863611 0 0 45 135 255 
4.064077 -19.08015 -1.94125 -0.3904012 0.9206448 -1.186587e-07 0 45 135 255 
7.874081 -18.96438 -3.264448 0.72726 0.6759346 0.1191863 0 45 135 255 
4.064077 -18.96438 -3.264448 -0.3904011 0.9066581 0.1598693 0 45 135 255 
7.874081 -18.6206 -4.547442 0.7272602 0.6449694 0.2347489 0 45 135 255 
4.064077 -18.6206 -4.547442 -0.3904012 0.8651235 0.3148785 0 45 135 255 
7.874081 -18.05926 -5.751249 0.7272605 0.594407 0.3431802 0 45 135 255 
4.064077 -18.05926 -5.751249 -0.3904008 0.7973025 0.4603217 0 45 135 255 
7.874081 -17.29741 -6.839292 0.7272605 0.5257837 0.4411846 0 45 135 255 
4.064077 -17.29741 -6.839292 -0.3904007 0.7052553 0.5917789 0 45 135 255 
7.874081 -16.35819 -7.778508 0.7272604 0.4411848 0.5257836 0 45 135 255 
4.064077 -16.35819 -7.778508 -0.3904007 0.5917792 0.705255 0 45 135 255 
7.874081 -15.27015 -8.540363 0.7272604 0.3431806 0.5944068 0 45 135 255 
4.064077 -15.27015 -8.540363 -0.3904009 0.4603221 0.7973022 0 45 135 255 
7.874081 -14.06634 -9.101707 0.7272602 0.2347495 0.6449692 0 45 135 255 
4.064077 -14.06634 -9.101707 -0.3904007 0.314879 0.8651234 0 45 135 255 
7.874081 -12.78334 -9.445485 0.7272605 0.1191852 0.6759342 0 45 135 255 
4.064077 -12.78334 -9.445485 -0.390401 0.1598681 0.9066583 0 45 135 255 
7.874081 -11.46014 -9.561249 0.7272601 -4.248372e-08 0.686362 0 45 135 255 
4.064077 -11.46014 -9.561249 -0.3904009 -1.38856e-07 0.920645 0 45 135 255 
7.874081 -10.13695 -9.445485 0.7272605 -0.1191853 0.6759343 0 45 135 255 
4.064077 -10.13695 -9.445485 -0.3904009 -0.1598681 0.9066584 0 45 135 255 
7.874081 -8.853952 -9.101707 0.7272602 -0.2347496 0.6449692 0 45 135 255 
4.064077 -8.853952 -9.101707 -0.3904007 -0.3148791 0.8651234 0 45 135 255 
7.874081 -7.650145 -8.540363 0.7272605 -0.3431807 0.5944067 0 45 135 255 
4.064077 -7.650145 -8.540363 -0.3904008 -0.4603224 0.7973021 0 45 135 255 
7.874081 -6.562103 -7.778508 0.7272604 -0.4411849 0.5257835 0 45 135 255 
4.064077 -6.562103 -7.778508 -0.3904009 -0.5917794 0.7052549 0 45 135 255 
7.874081 -5.622887 -6.839292 0.7272603 -0.5257835 0.441185 0 45 135 255 
4.064077 -5.622887 -6.839292 -0.3904007 -0.705255 0.5917794 0 45 135 255 
7.874081 -4.861031 -5.751249 0.7272606 -0.5944067 0.3431804 0 45 135 255 
4.064077 -4.861031 -5.751249 -0.3904008 -0.7973022 0.4603222 0 45 135 255 
7.874081 -4.299688 -4.547442 0.7272602 -0.6449693 0.2347495 0 45 135 255 
4.064077 -4.299688 -4.547442 -0.3904007 -0.8651235 0.3148789 0 45 135 255 
7.874081 -3.95591 -3.264448 0.7272605 -0.6759342 0.1191857 0 45 135 255 
-7.87392 -3.95591 -3.264448 -0.7272605 -0.6759341 0.1191857 0 45 135 255 
-4.063925 -3.840145 -1.94125 0.3904006 -0.9206451 1.641025e-08 0 45 135 255 
-7.87392 -3.840145 -1.94125 -0.7272604 -0.6863617 4.901967e-09 0 45 135 255 
-4.063925 -3.95591 -0.6180515 0.3904006 -0.9066584 -0.1598684 0 45 135 255 
-7.87392 -3.95591 -0.6180515 -0.7272605 -0.6759343 -0.1191855 0 45 135 255 
-4.063925 -4.299688 0.6649456 0.3904005 -0.8651235 -0.3148792 0 45 135 255 
-7.87392 -4.299688 0.6649456 -0.7272603 -0.6449692 -0.2347495 0 45 135 255 
-4.063925 -4.861031 1.86875 0.3904004 -0.7973021 -0.4603227 0 45 135 255 
-7.87392 -4.861031 1.86875 -0.7272605 -0.5944065 -0.3431808 0 45 135 255 
-4.063925 -5.622887 2.956791 0.3904005 -0.7052549 -0.5917795 0 45 135 255 
-7.87392 -5.622887 2.956791 -0.7272603 -0.5257835 -0.4411851 0 45 135 255 
-4.063925 -6.562103 3.896008 0.3904006 -0.5917796 -0.7052549 0 45 135 255 
-7.87392 -6.562103 3.896008 -0.7272602 -0.4411851 -0.5257835 0 45 135 255 
-4.063925 -7.650145 4.657864 0.3904007 -0.4603232 -0.7973016 0 45 135 255 
-7.87392 -7.650145 4.657864 -0.7272604 -0.3431814 -0.5944064 0 45 135 255 
-4.063925 -8.853952 5.21921 0.3904006 -0.3148794 -0.8651233 0 45 135 255 
-7.87392 -8.853952 5.21921 -0.7272605 -0.2347497 -0.6449689 0 45 135 255 
-4.063925 -10.13695 5.562986 0.3904006 -0.1598675 -0.9066586 0 45 135 255 
-7.87392 -10.13695 5.562986 -0.7272605 -0.1191848 -0.6759343 0 45 135 255 
-4.063925 -11.46014 5.678749 0.3904006 -1.956607e-07 -0.9206451 0 45 135 255 
-7.87392 -11.46014 5.678749 -0.7272599 -3.758176e-08 -0.6863621 0 45 135 255 
-4.063925 -12.78334 5.562986 0.3904008 0.1598676 -0.9066585 0 45 135 255 
-7.87392 -12.78334 5.562986 -0.7272605 0.1191848 -0.6759343 0 45 135 255 
-4.063925 -14.06634 5.21921 0.3904006 0.3148794 -0.8651234 0 45 135 255 
-7.87392 -14.06634 5.21921 -0.7272605 0.2347495 -0.6449689 0 45 135 255 
-4.063925 -15.27015 4.657864 0.3904006 0.4603228 -0.7973019 0 45 135 255 
-7.87392 -15.27015 4.657864 -0.7272604 0.3431811 -0.5944065 0 45 135 255 
-4.063925 -16.35819 3.896008 0.3904005 0.5917795 -0.7052549 0 45 135 255 
-7.87392 -16.35819 3.896008 -0.7272602 0.441185 -0.5257835 0 45 135 255 
-4.063925 -17.29741 2.956791 0.3904004 0.7052552 -0.5917792 0 45 135 255 
-7.87392 -17.29741 2.956791 -0.7272605 0.5257836 -0.4411847 0 45 135 255 
-4.063925 -18.05926 1.86875 0.3904006 0.7973022 -0.4603223 0 45 135 255 
-7.87392 -18.05926 1.86875 -0.7272605 0.5944068 -0.3431806 0 45 135 255 
-4.063925 -18.6206 0.6649456 0.3904009 0.8651235 -0.3148786 0 45 135 255 
-7.87392 -18.6206 0.6649456 -0.7272605 0.6449692 -0.234749 0 45 135 255 
-4.063925 -18.96438 -0.6180515 0.3904008 0.9066582 -0.1598691 0 45 135 255 
-7.87392 -18.96438 -0.6180515 -0.7272599 0.6759347 -0.1191861 0 45 135 255 
-4.063925 -19.08015 -1.94125 0.390401 0.9206449 1.287573e-07 0 45 135 255 
-7.87392 -19.08015 -1.94125 -0.727261 0.6863611 0 0 45 135 255 
-4.063925 -18.96438 -3.264448 0.3904006 0.9066583 0.1598693 0 45 135 255 
-7.87392 -18.96438 -3.264448 -0.72726 0.6759346 0.1191863 0 45 135 255 
-4.063925 -18.6206 -4.547442 0.3904009 0.8651236 0.3148782 0 45 135 255 
-7.87392 -18.6206 -4.547442 -0.7272602 0.6449694 0.234749 0 45 135 255 
-4.063925 -18.05926 -5.751249 0.3904007 0.7973024 0.4603218 0 45 135 255 
-7.87392 -18.05926 -5.751249 -0.7272605 0.594407 0.3431801 0 45 135 255 
-4.063925 -17.29741 -6.839292 0.3904004 0.7052553 0.5917791 0 45 135 255 
-7.87392 -17.29741 -6.839292 -0.7272605 0.5257837 0.4411846 0 45 135 255 
-4.063925 -16.35819 -7.778508 0.3904004 0.5917793 0.7052552 0 45 135 255 
-7.87392 -16.35819 -7.778508 -0.7272605 0.4411847 0.5257835 0 45 135 255 
-4.063925 -15.27015 -8.540363 0.3904005 0.4603222 0.7973022 0 45 135 255 
-7.87392 -15.27015 -8.540363 -0.7272605 0.3431805 0.5944068 0 45 135 255 
-4.063925 -14.06634 -9.101707 0.3904004 0.314879 0.8651236 0 45 135 255 
-7.87392 -14.06634 -9.101707 -0.7272603 0.2347495 0.6449692 0 45 135 255 
-4.063925 -12.78334 -9.445485 0.3904007 0.1598681 0.9066585 0 45 135 255 
-7.87392 -12.78334 -9.445485 -0.7272605 0.1191852 0.6759342 0 45 135 255 
-4.063925 -11.46014 -9.561249 0.3904006 1.38856e-08 0.9206451 0 45 135 255 
-7.87392 -11.46014 -9.561249 -0.7272602 -4.084973e-08 0.6863619 0 45 135 255 
-4.063925 -10.13695 -9.445485 0.3904007 -0.1598682 0.9066584 0 45 135 255 
-7.87392 -10.13695 -9.445485 -0.7272606 -0.1191853 0.6759342 0 45 135 255 
-4.063925 -8.853952 -9.101707 0.3904004 -0.3148793 0.8651235 0 45 135 255 
-7.87392 -8.853952 -9.101707 -0.7272602 -0.2347496 0.6449692 0 45 135 255 
-4.063925 -7.650145 -8.540363 0.3904004 -0.4603225 0.7973021 0 45 135 255 
-7.87392 -7.650145 -8.540363 -0.7272605 -0.3431808 0.5944067 0 45 135 255 
-4.063925 -6.562103 -7.778508 0.3904006 -0.5917794 0.705255 0 45 135 255 
-7.87392 -6.562103 -7.778508 -0.7272604 -0.4411849 0.5257835 0 45 135 255 
-4.063925 -5.622887 -6.839292 0.3904006 -0.705255 0.5917794 0 45 135 255 
-7.87392 -5.622887 -6.839292 -0.7272604 -0.5257835 0.441185 0 45 135 255 
-4.063925 -4.861031 -5.751249 0.3904004 -0.7973024 0.4603221 0 45 135 255 
-7.87392 -4.861031 -5.751249 -0.7272605 -0.5944068 0.3431805 0 45 135 255 
-4.063925 -4.299688 -4.547442 0.3904003 -0.8651236 0.3148791 0 45 135 255 
-7.87392 -4.299688 -4.547442 -0.7272601 -0.6449694 0.2347495 0 45 135 255 
-4.063925 -3.95591 -3.264448 0.3904006 -0.9066584 0.1598687 0 45 135 255 
25.40008 3.779856 10.55408 0.6440713 -0.7279957 -0.2349349 0 45 135 255 
7.874081 3.779856 10.55408 0.7831941 -0.5917276 -0.1909592 0 45 135 255 
7.874081 5.217386 8.558786 0.6933297 -0.609823 -0.3839398 0 45 135 255 
25.40008 5.217386 8.558786 0.7214234 -0.5860212 -0.3689544 0 45 135 255 
7.874081 6.395231 6.399998 0.6933294 -0.6528921 -0.3050021 0 45 135 255 
25.40008 6.395231 6.399998 0.7214237 -0.6274088 -0.2930975 0 45 135 255 
7.874081 7.295042 4.111326 0.69333 -0.6857936 -0.2213158 0 45 135 255 
25.40008 7.295042 4.111326 0.7214231 -0.6590272 -0.2126779 0 45 135 255 
7.874081 7.902822 1.728409 0.6933294 -0.7080178 -0.1341837 0 45 135 255 
25.40008 7.902822 1.728409 0.7214237 -0.6803827 -0.1289463 0 45 135 255 
7.874081 8.209093 -0.711647 0.6933298 -0.7192166 -0.04496088 0 45 135 255 
25.40008 8.209093 -0.711647 0.7214234 -0.6911451 -0.04320602 0 45 135 255 
7.874081 8.209093 -3.170851 0.6933298 -0.7192166 0.04496083 0 45 135 255 
25.40008 8.209093 -3.170851 0.7214234 -0.6911451 0.04320598 0 45 135 255 
7.874081 7.902822 -5.610909 0.6933294 -0.7080178 0.1341837 0 45 135 255 
25.40008 7.902822 -5.610909 0.7214238 -0.6803827 0.1289463 0 45 135 255 
7.874081 7.295042 -7.993825 0.69333 -0.6857936 0.2213158 0 45 135 255 
25.40008 7.295042 -7.993825 0.721423 -0.6590272 0.212678 0 45 135 255 
7.874081 6.395231 -10.2825 0.6933294 -0.6528921 0.3050021 0 45 135 255 
25.40008 6.395231 -10.2825 0.7214237 -0.6274087 0.2930974 0 45 135 255 
7.874081 5.217386 -12.44129 0.6933298 -0.609823 0.3839398 0 45 135 255 
25.40008 5.217386 -12.44129 0.7214234 -0.5860214 0.3689544 0 45 135 255 
7.874081 3.779856 -14.43658 0.7831947 -0.591727 0.190959 0 45 135 255 
25.40008 3.779856 -14.43658 0.6440713 -0.7279957 0.2349349 0 45 135 255 
1.395794 21.55985 -20.12488 0.2681698 0.8783524 -0.3957045 0 45 135 255 
-25.39992 18.36289 24.72875 -0.7087837 0.3305112 0.6232079 0 45 135 255 
-25.39992 3.779856 24.72875 -0.5773503 -0.5773504 0.5773501 0 45 135 255 
25.40008 18.36289 24.72875 0.7087844 0.3305144 0.6232054 0 45 135 255 
25.40008 3.779856 24.72875 0.5773504 -0.5773502 0.5773503 0 45 135 255 
6.978672 19.52785 24.72875 -0.09357043 0.3731294 0.9230488 0 45 135 255 
-6.978518 19.52785 24.72875 0.09357052 0.3731291 0.9230489 0 45 135 255 
7.874081 3.779856 16.24238 0.3015113 -0.904534 0.3015113 0 45 135 255 
-7.87392 3.779856 16.24238 -0.3015112 -0.9045341 0.3015113 0 45 135 255 
-7.87392 3.779856 10.55408 -0.783195 -0.5917266 -0.1909589 0 45 135 255 
-25.39992 3.779856 10.55408 -0.6440713 -0.7279957 -0.2349349 0 45 135 255 
-25.39992 5.217386 8.558786 -0.7214234 -0.5860213 -0.3689544 0 45 135 255 
-7.87392 5.217386 8.558786 -0.6933298 -0.609823 -0.3839398 0 45 135 255 
-25.39992 6.395231 6.399998 -0.7214237 -0.6274087 -0.2930975 0 45 135 255 
-7.87392 6.395231 6.399998 -0.6933294 -0.6528921 -0.3050021 0 45 135 255 
-25.39992 7.295042 4.111326 -0.7214231 -0.6590272 -0.2126779 0 45 135 255 
-7.87392 7.295042 4.111326 -0.69333 -0.6857936 -0.2213158 0 45 135 255 
-25.39992 7.902822 1.728409 -0.7214237 -0.6803827 -0.1289463 0 45 135 255 
-7.87392 7.902822 1.728409 -0.6933294 -0.7080178 -0.1341837 0 45 135 255 
-25.39992 8.209093 -0.711647 -0.7214234 -0.6911451 -0.04320603 0 45 135 255 
-7.87392 8.209093 -0.711647 -0.6933298 -0.7192166 -0.04496088 0 45 135 255 
-25.39992 8.209093 -3.170851 -0.7214234 -0.6911451 0.04320598 0 45 135 255 
-7.87392 8.209093 -3.170851 -0.6933298 -0.7192166 0.04496084 0 45 135 255 
-25.39992 7.902822 -5.610909 -0.7214238 -0.6803827 0.1289463 0 45 135 255 
-7.87392 7.902822 -5.610909 -0.6933294 -0.7080178 0.1341837 0 45 135 255 
-25.39992 7.295042 -7.993825 -0.7214231 -0.6590273 0.212678 0 45 135 255 
-7.87392 7.295042 -7.993825 -0.69333 -0.6857936 0.2213159 0 45 135 255 
-25.39992 6.395231 -10.2825 -0.7214237 -0.6274087 0.2930974 0 45 135 255 
-7.87392 6.395231 -10.2825 -0.6933294 -0.6528921 0.3050021 0 45 135 255 
-25.39992 5.217386 -12.44129 -0.7214234 -0.5860212 0.3689544 0 45 135 255 
-7.87392 5.217386 -12.44129 -0.6933298 -0.609823 0.3839397 0 45 135 255 
25.40008 3.779856 -20.12488 0.5773503 -0.5773503 -0.5773503 0 45 135 255 
7.874081 3.779856 -20.12488 0.3015108 -0.3015114 -0.9045342 0 45 135 255 
25.40008 18.36289 -20.12488 0.7087837 0.3305111 -0.6232079 0 45 135 255 
-25.39992 18.36289 -20.12488 -0.7087843 0.330514 -0.6232057 0 45 135 255 
-7.87392 -11.46014 16.24238 -0.699816 -0.02337196 0.7139407 0 45 135 255 
7.874081 -11.46014 16.24238 0.6998161 -0.02337196 0.7139407 0 45 135 255 
-7.87392 -29.64378 -20.12488 -0.5773513 -0.5773497 -0.5773497 0 45 135 255 
7.874081 -29.64378 -20.12488 0.5773513 -0.5773498 -0.5773497 0 45 135 255 
6.978672 19.52785 -20.12488 -0.0935705 0.3731297 -0.9230487 0 45 135 255 
-7.87392 -13.83359 16.08682 -0.6926778 -0.09414197 0.7150767 0 45 135 255 
-7.87392 -16.16642 15.62279 -0.6926783 -0.1866726 0.6966707 0 45 135 255 
-7.87392 -29.02419 2.76502 -0.6926783 -0.6966708 0.1866728 0 45 135 255 
-7.87392 -28.25963 5.017326 -0.6926782 -0.6663452 0.2760091 0 45 135 255 
-7.87392 -27.20763 7.150566 -0.6926781 -0.6246183 0.3606231 0 45 135 255 
-7.87392 -29.64378 -1.94125 -0.699816 -0.7139407 0.02337141 0 45 135 255 
-7.87392 -29.48822 0.4321899 -0.6926778 -0.7150769 0.09414142 0 45 135 255 
-7.87392 -25.88619 9.128246 -0.6926778 -0.5722037 0.4390676 0 45 135 255 
-7.87392 -24.31791 10.91652 -0.6926782 -0.5099983 0.5099988 0 45 135 255 
-7.87392 -22.52964 12.4848 -0.692678 -0.4390676 0.5722035 0 45 135 255 
-7.87392 -20.55196 13.80624 -0.6926779 -0.3606236 0.6246184 0 45 135 255 
-7.87392 -18.41872 14.85824 -0.692678 -0.276009 0.6663455 0 45 135 255 
7.874081 -29.64378 -1.94125 0.699816 -0.7139407 0.02337141 0 45 135 255 
7.874081 -29.48822 0.4321899 0.6926777 -0.7150769 0.09414142 0 45 135 255 
7.874081 -29.02419 2.76502 0.6926783 -0.6966708 0.1866728 0 45 135 255 
7.874081 -24.31791 10.91652 0.6926782 -0.5099983 0.5099988 0 45 135 255 
7.874081 -25.88619 9.128246 0.6926778 -0.5722037 0.4390677 0 45 135 255 
7.874081 -27.20763 7.150566 0.6926782 -0.6246184 0.3606231 0 45 135 255 
7.874081 -28.25963 5.017326 0.6926781 -0.6663453 0.2760091 0 45 135 255 
7.874081 -16.16642 15.62279 0.6926783 -0.1866726 0.6966708 0 45 135 255 
7.874081 -18.41872 14.85824 0.6926781 -0.276009 0.6663454 0 45 135 255 
7.874081 -20.55196 13.80624 0.692678 -0.3606235 0.6246183 0 45 135 255 
7.874081 -22.52964 12.4848 0.6926781 -0.4390676 0.5722035 0 45 135 255 
7.874081 -13.83359 16.08682 0.692678 -0.09414196 0.7150766 0 45 135 255 
2.540077 -20.46523 -0.3534107 -0.3753738 0.9127923 -0.1609499 0 45 135 255 
2.540077 -20.0527 1.186184 -0.3753735 0.8709764 -0.3170092 0 45 135 255 
2.540077 -19.37908 2.630751 -0.3753734 0.8026958 -0.4634376 0 45 135 255 
2.540077 -18.46486 3.936399 -0.3753732 0.7100263 -0.5957832 0 45 135 255 
2.540077 -17.3378 5.063459 -0.3753734 0.5957835 -0.710026 0 45 135 255 
2.540077 -16.03215 5.977688 -0.3753734 0.4634372 -0.8026959 0 45 135 255 
2.540077 -14.58758 6.6513 -0.3753734 0.3170092 -0.8709764 0 45 135 255 
2.540077 -13.04799 7.063833 -0.3753735 0.16095 -0.9127924 0 45 135 255 
2.540077 -11.46014 7.202751 -0.3753736 1.050345e-08 -0.9268736 0 45 135 255 
2.540077 -9.872307 7.063833 -0.3753733 -0.16095 -0.9127924 0 45 135 255 
2.540077 -8.332714 6.6513 -0.3753734 -0.3170094 -0.8709764 0 45 135 255 
2.540077 -6.888145 5.977688 -0.3753734 -0.463437 -0.802696 0 45 135 255 
2.540077 -5.582495 5.063459 -0.3753735 -0.5957832 -0.7100261 0 45 135 255 
2.540077 -4.455435 3.936399 -0.3753733 -0.7100265 -0.5957829 0 45 135 255 
2.540077 -3.54121 2.630751 -0.3753732 -0.8026963 -0.4634368 0 45 135 255 
2.540077 -2.867598 1.186184 -0.3753733 -0.8709763 -0.3170099 0 45 135 255 
2.540077 -2.455063 -0.3534107 -0.3753733 -0.9127923 -0.1609503 0 45 135 255 
2.540077 -2.316145 -1.94125 -0.3753734 -0.9268737 2.363275e-08 0 45 135 255 
2.540077 -2.455063 -3.529087 -0.3753733 -0.9127923 0.1609504 0 45 135 255 
2.540077 -2.867598 -5.068682 -0.3753733 -0.8709763 0.3170097 0 45 135 255 
2.540077 -3.54121 -6.513249 -0.3753732 -0.8026965 0.4634366 0 45 135 255 
2.540077 -4.455435 -7.818899 -0.3753734 -0.7100267 0.5957826 0 45 135 255 
2.540077 -5.582495 -8.94596 -0.3753734 -0.595783 0.7100264 0 45 135 255 
2.540077 -6.888145 -9.860186 -0.3753733 -0.4634365 0.8026964 0 45 135 255 
2.540077 -8.332714 -10.5338 -0.3753733 -0.3170095 0.8709764 0 45 135 255 
2.540077 -9.872307 -10.94633 -0.3753734 -0.1609502 0.9127923 0 45 135 255 
2.540077 -11.46014 -11.08525 -0.3753735 -1.536129e-07 0.9268737 0 45 135 255 
2.540077 -13.04799 -10.94633 -0.3753733 0.1609503 0.9127924 0 45 135 255 
2.540077 -14.58758 -10.5338 -0.3753733 0.3170095 0.8709764 0 45 135 255 
2.540077 -16.03215 -9.860186 -0.3753732 0.4634365 0.8026964 0 45 135 255 
2.540077 -17.3378 -8.94596 -0.3753732 0.5957832 0.7100264 0 45 135 255 
2.540077 -18.46486 -7.818899 -0.3753732 0.7100265 0.5957829 0 45 135 255 
2.540077 -19.37908 -6.513249 -0.3753735 0.8026959 0.4634372 0 45 135 255 
2.540077 -20.0527 -5.068682 -0.3753737 0.8709763 0.3170093 0 45 135 255 
2.540077 -20.46523 -3.529087 -0.3753736 0.9127923 0.16095 0 45 135 255 
2.540077 -20.60415 -1.94125 -0.3753734 0.9268737 -5.776897e-08 0 45 135 255 
-2.539923 -2.455063 -0.3534107 0.375373 -0.9127925 -0.1609504 0 45 135 255 
-2.539923 -2.867598 1.186184 0.375373 -0.8709764 -0.31701 0 45 135 255 
-2.539923 -3.54121 2.630751 0.3753729 -0.8026963 -0.4634369 0 45 135 255 
-2.539923 -4.455435 3.936399 0.3753731 -0.7100266 -0.5957829 0 45 135 255 
-2.539923 -5.582495 5.063459 0.3753732 -0.5957833 -0.7100263 0 45 135 255 
-2.539923 -6.888145 5.977688 0.3753731 -0.4634372 -0.8026961 0 45 135 255 
-2.539923 -8.332714 6.6513 0.375373 -0.3170094 -0.8709766 0 45 135 255 
-2.539923 -9.872307 7.063833 0.3753732 -0.1609499 -0.9127925 0 45 135 255 
-2.539923 -11.46014 7.202751 0.3753733 -1.969396e-07 -0.9268737 0 45 135 255 
-2.539923 -13.04799 7.063833 0.3753731 0.1609501 -0.9127925 0 45 135 255 
-2.539923 -14.58758 6.6513 0.3753731 0.3170094 -0.8709765 0 45 135 255 
-2.539923 -16.03215 5.977688 0.3753732 0.4634371 -0.8026962 0 45 135 255 
-2.539923 -17.3378 5.063459 0.375373 0.5957837 -0.7100261 0 45 135 255 
-2.539923 -18.46486 3.936399 0.375373 0.7100263 -0.5957832 0 45 135 255 
-2.539923 -19.37908 2.630751 0.3753732 0.8026958 -0.4634376 0 45 135 255 
-2.539923 -20.0527 1.186184 0.3753733 0.8709764 -0.3170094 0 45 135 255 
-2.539923 -20.46523 -0.3534107 0.3753734 0.9127924 -0.1609499 0 45 135 255 
-2.539923 -20.60415 -1.94125 0.3753732 0.9268738 1.431095e-07 0 45 135 255 
-2.539923 -20.46523 -3.529087 0.3753735 0.9127924 0.1609499 0 45 135 255 
-2.539923 -20.0527 -5.068682 0.3753733 0.8709766 0.3170092 0 45 135 255 
-2.539923 -19.37908 -6.513249 0.3753729 0.802696 0.4634373 0 45 135 255 
-2.539923 -18.46486 -7.818899 0.3753729 0.7100266 0.5957831 0 45 135 255 
-2.539923 -17.3378 -8.94596 0.3753729 0.5957832 0.7100264 0 45 135 255 
-2.539923 -16.03215 -9.860186 0.375373 0.4634367 0.8026965 0 45 135 255 
-2.539923 -14.58758 -10.5338 0.3753731 0.3170095 0.8709764 0 45 135 255 
-2.539923 -13.04799 -10.94633 0.3753731 0.1609503 0.9127925 0 45 135 255 
-2.539923 -11.46014 -11.08525 0.3753732 -3.41362e-08 0.9268738 0 45 135 255 
-2.539923 -9.872307 -10.94633 0.375373 -0.1609503 0.9127925 0 45 135 255 
-2.539923 -8.332714 -10.5338 0.375373 -0.3170096 0.8709765 0 45 135 255 
-2.539923 -6.888145 -9.860186 0.375373 -0.4634366 0.8026965 0 45 135 255 
-2.539923 -5.582495 -8.94596 0.3753731 -0.595783 0.7100266 0 45 135 255 
-2.539923 -4.455435 -7.818899 0.375373 -0.7100269 0.5957827 0 45 135 255 
-2.539923 -3.54121 -6.513249 0.3753729 -0.8026966 0.4634366 0 45 135 255 
-2.539923 -2.867598 -5.068682 0.3753731 -0.8709764 0.3170099 0 45 135 255 
-2.539923 -2.455063 -3.529087 0.3753731 -0.9127925 0.1609504 0 45 135 255 
-2.539923 -2.316145 -1.94125 0.3753732 -0.9268738 5.514308e-08 0 45 135 255 
24.01172 19.52785 -8.845359 0.5527431 0.8328052 -0.03017407 0 45 135 255 
24.01172 19.52785 1.098049 0.5527431 0.8328053 -0.03017406 0 45 135 255 
24.01172 19.52785 11.04146 0.5527432 0.8328052 -0.03017411 0 45 135 255 
24.01172 19.52785 20.98487 0.5527431 0.8328052 -0.03017419 0 45 135 255 
-24.01157 19.52785 -8.845359 -0.5527432 0.8328053 -0.03017418 0 45 135 255 
-24.01157 19.52785 1.098049 -0.5527433 0.8328052 -0.03017416 0 45 135 255 
24.01172 19.52785 -16.381 0.5527433 0.8328052 0.03017426 0 45 135 255 
-24.01157 19.52785 11.04146 -0.5527433 0.8328052 -0.03017415 0 45 135 255 
24.01172 19.52785 -6.43759 0.5527432 0.8328053 0.0301741 0 45 135 255 
-24.01157 19.52785 20.98487 -0.5527432 0.8328052 -0.03017439 0 45 135 255 
24.01172 19.52785 3.505819 0.5527431 0.8328053 0.03017408 0 45 135 255 
24.01172 19.52785 13.44923 0.5527431 0.8328053 0.03017406 0 45 135 255 
3 0 1 2 
3 3 4 5 
3 5 4 6 
3 5 6 7 
3 8 9 10 
3 11 12 13 
3 13 12 14 
3 13 14 15 
3 15 14 16 
3 17 18 19 
3 19 18 20 
3 19 20 21 
3 21 20 22 
3 23 24 25 
3 26 27 11 
3 11 27 28 
3 11 28 12 
3 15 16 17 
3 17 16 18 
3 21 22 29 
3 29 22 30 
3 29 30 31 
3 32 33 34 
3 34 33 35 
3 34 35 36 
3 36 35 37 
3 38 39 14 
3 14 39 40 
3 14 40 41 
3 41 40 42 
3 43 20 44 
3 44 20 45 
3 46 47 43 
3 43 47 20 
3 33 32 48 
3 48 32 49 
3 48 49 50 
3 51 52 53 
3 36 37 38 
3 38 37 39 
3 41 42 45 
3 45 42 54 
3 45 54 44 
3 55 56 57 
3 57 56 58 
3 57 58 59 
3 59 58 60 
3 61 62 35 
3 35 62 63 
3 35 63 64 
3 64 63 65 
3 66 40 67 
3 67 40 68 
3 69 70 66 
3 66 70 40 
3 59 60 61 
3 61 60 62 
3 56 55 71 
3 71 55 72 
3 71 72 73 
3 74 75 76 
3 64 65 68 
3 68 65 77 
3 68 77 67 
3 78 79 80 
3 80 79 81 
3 80 81 82 
3 82 81 83 
3 84 85 58 
3 58 85 86 
3 58 86 87 
3 87 86 88 
3 89 63 90 
3 90 63 91 
3 92 93 89 
3 89 93 63 
3 94 90 88 
3 88 90 91 
3 88 91 87 
3 82 83 84 
3 84 83 85 
3 79 78 95 
3 95 78 96 
3 95 96 97 
3 98 99 81 
3 81 99 100 
3 81 100 101 
3 101 100 102 
3 103 86 104 
3 104 86 105 
3 106 107 103 
3 103 107 86 
3 46 108 47 
3 69 109 70 
3 92 110 93 
3 106 111 107 
3 112 104 102 
3 102 104 105 
3 102 105 101 
3 113 114 115 
3 115 114 116 
3 117 118 119 
3 119 118 120 
3 119 120 121 
3 121 120 122 
3 121 122 123 
3 123 122 124 
3 123 124 125 
3 125 124 126 
3 125 126 127 
3 127 126 128 
3 127 128 129 
3 129 128 130 
3 129 130 131 
3 131 130 132 
3 131 132 133 
3 133 132 134 
3 133 134 135 
3 135 134 136 
3 135 136 137 
3 137 136 138 
3 137 138 139 
3 139 138 140 
3 139 140 141 
3 141 140 142 
3 141 142 143 
3 143 142 144 
3 143 144 145 
3 145 144 146 
3 145 146 147 
3 147 146 148 
3 147 148 149 
3 149 148 150 
3 149 150 151 
3 151 150 152 
3 151 152 153 
3 153 152 154 
3 153 154 155 
3 155 154 156 
3 155 156 157 
3 157 156 158 
3 157 158 159 
3 159 158 160 
3 159 160 161 
3 161 160 162 
3 161 162 163 
3 163 162 164 
3 163 164 165 
3 165 164 166 
3 165 166 167 
3 167 166 168 
3 167 168 169 
3 169 168 170 
3 169 170 171 
3 171 170 172 
3 171 172 173 
3 173 172 174 
3 173 174 175 
3 175 174 176 
3 175 176 177 
3 177 176 178 
3 177 178 179 
3 179 178 180 
3 179 180 181 
3 181 180 182 
3 181 182 183 
3 183 182 184 
3 183 184 185 
3 185 184 186 
3 185 186 187 
3 187 186 188 
3 187 188 117 
3 117 188 118 
3 189 190 191 
3 191 190 192 
3 191 192 193 
3 193 192 194 
3 193 194 195 
3 195 194 196 
3 195 196 197 
3 197 196 198 
3 197 198 199 
3 199 198 200 
3 199 200 201 
3 201 200 202 
3 201 202 203 
3 203 202 204 
3 203 204 205 
3 205 204 206 
3 205 206 207 
3 207 206 208 
3 207 208 209 
3 209 208 210 
3 209 210 211 
3 211 210 212 
3 211 212 213 
3 213 212 214 
3 213 214 215 
3 215 214 216 
3 215 216 217 
3 217 216 218 
3 217 218 219 
3 219 218 220 
3 219 220 221 
3 221 220 222 
3 221 222 223 
3 223 222 224 
3 223 224 225 
3 225 224 226 
3 225 226 227 
3 227 226 228 
3 227 228 229 
3 229 228 230 
3 229 230 231 
3 231 230 232 
3 231 232 233 
3 233 232 234 
3 233 234 235 
3 235 234 236 
3 235 236 237 
3 237 236 238 
3 237 238 239 
3 239 238 240 
3 239 240 241 
3 241 240 242 
3 241 242 243 
3 243 242 244 
3 243 244 245 
3 245 244 246 
3 245 246 247 
3 247 246 248 
3 247 248 249 
3 249 248 250 
3 249 250 251 
3 251 250 252 
3 251 252 253 
3 253 252 254 
3 253 254 255 
3 255 254 256 
3 255 256 257 
3 257 256 258 
3 257 258 259 
3 259 258 260 
3 259 260 189 
3 189 260 190 
3 261 262 263 
3 261 263 264 
3 264 263 265 
3 264 265 266 
3 266 265 267 
3 266 267 268 
3 268 267 269 
3 268 269 270 
3 270 269 271 
3 270 271 272 
3 272 271 273 
3 272 273 274 
3 274 273 275 
3 274 275 276 
3 276 275 277 
3 276 277 278 
3 278 277 279 
3 278 279 280 
3 280 279 281 
3 280 281 282 
3 282 281 283 
3 282 283 284 
3 98 285 99 
3 31 286 29 
3 29 286 287 
3 288 3 289 
3 289 3 5 
3 289 5 290 
3 290 10 289 
3 289 10 9 
3 289 9 287 
3 287 9 291 
3 287 291 29 
3 262 261 292 
3 292 261 289 
3 292 289 293 
3 293 289 287 
3 293 287 294 
3 294 287 295 
3 294 295 296 
3 294 296 297 
3 297 296 298 
3 297 298 299 
3 299 298 300 
3 299 300 301 
3 301 300 302 
3 301 302 303 
3 303 302 304 
3 303 304 305 
3 305 304 306 
3 305 306 307 
3 307 306 308 
3 307 308 309 
3 309 308 310 
3 309 310 311 
3 311 310 312 
3 311 312 313 
3 313 312 314 
3 313 314 315 
3 315 314 116 
3 315 116 114 
3 316 284 317 
3 317 284 283 
3 288 289 261 
3 261 264 288 
3 288 264 266 
3 288 266 268 
3 318 276 278 
3 268 270 288 
3 288 270 272 
3 288 272 318 
3 318 272 274 
3 318 274 276 
3 284 316 282 
3 282 316 318 
3 282 318 280 
3 280 318 278 
3 319 115 116 
3 286 302 300 
3 116 314 319 
3 319 314 312 
3 319 312 310 
3 310 308 319 
3 319 308 306 
3 319 306 286 
3 286 306 304 
3 286 304 302 
3 295 287 296 
3 296 287 286 
3 296 286 298 
3 298 286 300 
3 320 321 293 
3 293 321 292 
3 322 113 323 
3 323 113 317 
3 285 324 99 
3 99 324 317 
3 99 317 100 
3 100 317 113 
3 100 113 102 
3 318 316 97 
3 97 316 317 
3 97 317 95 
3 95 317 324 
3 115 319 113 
3 113 319 112 
3 113 112 102 
3 259 189 294 
3 189 191 294 
3 294 191 193 
3 294 193 195 
3 203 205 293 
3 293 205 320 
3 245 247 114 
3 114 247 249 
3 114 249 251 
3 205 207 320 
3 320 207 209 
3 320 209 325 
3 325 209 211 
3 325 211 326 
3 326 211 213 
3 259 294 257 
3 257 294 297 
3 257 297 299 
3 225 327 223 
3 223 327 328 
3 223 328 221 
3 221 328 329 
3 221 329 219 
3 227 330 225 
3 225 330 331 
3 225 331 327 
3 195 197 294 
3 294 197 199 
3 294 199 293 
3 293 199 201 
3 293 201 203 
3 329 332 219 
3 219 332 333 
3 219 333 217 
3 217 333 334 
3 217 334 215 
3 215 334 335 
3 215 335 213 
3 213 335 336 
3 213 336 326 
3 227 229 330 
3 330 229 231 
3 330 231 322 
3 322 231 233 
3 322 233 235 
3 299 301 257 
3 257 301 303 
3 257 303 305 
3 305 307 257 
3 257 307 309 
3 257 309 311 
3 251 253 114 
3 114 253 255 
3 114 255 315 
3 315 255 257 
3 315 257 313 
3 313 257 311 
3 235 237 322 
3 322 237 239 
3 322 239 241 
3 114 113 245 
3 245 113 322 
3 245 322 243 
3 243 322 241 
3 122 120 283 
3 136 134 262 
3 262 134 132 
3 262 132 130 
3 120 118 283 
3 283 118 188 
3 283 188 186 
3 178 176 317 
3 158 337 160 
3 160 337 323 
3 160 323 162 
3 186 184 283 
3 283 184 182 
3 283 182 317 
3 317 182 180 
3 317 180 178 
3 158 156 337 
3 337 156 154 
3 337 154 338 
3 338 154 152 
3 338 152 339 
3 339 152 150 
3 130 128 262 
3 262 128 126 
3 262 126 263 
3 263 126 124 
3 263 124 265 
3 176 174 317 
3 317 174 172 
3 317 172 323 
3 323 172 170 
3 323 170 168 
3 168 166 323 
3 323 166 164 
3 323 164 162 
3 144 340 146 
3 146 340 341 
3 146 341 148 
3 148 341 342 
3 148 342 150 
3 150 342 343 
3 150 343 339 
3 138 344 140 
3 140 344 345 
3 140 345 142 
3 142 345 346 
3 142 346 144 
3 144 346 347 
3 144 347 340 
3 262 292 136 
3 136 292 321 
3 136 321 138 
3 138 321 348 
3 138 348 344 
3 279 277 124 
3 122 283 124 
3 124 283 281 
3 124 281 279 
3 277 275 124 
3 124 275 273 
3 124 273 271 
3 271 269 124 
3 124 269 267 
3 124 267 265 
3 330 337 338 
3 330 338 331 
3 331 338 339 
3 331 339 327 
3 327 339 343 
3 327 343 328 
3 328 343 342 
3 328 342 329 
3 329 342 341 
3 329 341 332 
3 332 341 340 
3 332 340 333 
3 333 340 347 
3 333 347 334 
3 334 347 346 
3 334 346 335 
3 335 346 345 
3 335 345 336 
3 336 345 344 
3 336 344 326 
3 326 344 348 
3 326 348 325 
3 325 348 321 
3 325 321 320 
3 322 323 330 
3 330 323 337 
3 153 349 151 
3 151 349 350 
3 151 350 149 
3 149 350 351 
3 149 351 147 
3 147 351 352 
3 147 352 145 
3 145 352 353 
3 145 353 143 
3 143 353 354 
3 143 354 141 
3 141 354 355 
3 141 355 139 
3 139 355 356 
3 139 356 137 
3 137 356 357 
3 137 357 135 
3 135 357 358 
3 135 358 133 
3 133 358 359 
3 133 359 131 
3 131 359 360 
3 131 360 129 
3 129 360 361 
3 129 361 127 
3 127 361 362 
3 127 362 125 
3 125 362 363 
3 125 363 123 
3 123 363 364 
3 123 364 121 
3 121 364 365 
3 121 365 119 
3 119 365 366 
3 119 366 117 
3 117 366 367 
3 117 367 187 
3 187 367 368 
3 187 368 185 
3 185 368 369 
3 185 369 183 
3 183 369 370 
3 183 370 181 
3 181 370 371 
3 181 371 179 
3 179 371 372 
3 179 372 177 
3 177 372 373 
3 177 373 175 
3 175 373 374 
3 175 374 173 
3 173 374 375 
3 173 375 171 
3 171 375 376 
3 171 376 169 
3 169 376 377 
3 169 377 167 
3 167 377 378 
3 167 378 165 
3 165 378 379 
3 165 379 163 
3 163 379 380 
3 163 380 161 
3 161 380 381 
3 161 381 159 
3 159 381 382 
3 159 382 157 
3 157 382 383 
3 157 383 155 
3 155 383 384 
3 155 384 153 
3 153 384 349 
3 192 385 194 
3 194 385 386 
3 194 386 196 
3 196 386 387 
3 196 387 198 
3 198 387 388 
3 198 388 200 
3 200 388 389 
3 200 389 202 
3 202 389 390 
3 202 390 204 
3 204 390 391 
3 204 391 206 
3 206 391 392 
3 206 392 208 
3 208 392 393 
3 208 393 210 
3 210 393 394 
3 210 394 212 
3 212 394 395 
3 212 395 214 
3 214 395 396 
3 214 396 216 
3 216 396 397 
3 216 397 218 
3 218 397 398 
3 218 398 220 
3 220 398 399 
3 220 399 222 
3 222 399 400 
3 222 400 224 
3 224 400 401 
3 224 401 226 
3 226 401 402 
3 226 402 228 
3 228 402 403 
3 228 403 230 
3 230 403 404 
3 230 404 232 
3 232 404 405 
3 232 405 234 
3 234 405 406 
3 234 406 236 
3 236 406 407 
3 236 407 238 
3 238 407 408 
3 238 408 240 
3 240 408 409 
3 240 409 242 
3 242 409 410 
3 242 410 244 
3 244 410 411 
3 244 411 246 
3 246 411 412 
3 246 412 248 
3 248 412 413 
3 248 413 250 
3 250 413 414 
3 250 414 252 
3 252 414 415 
3 252 415 254 
3 254 415 416 
3 254 416 256 
3 256 416 417 
3 256 417 258 
3 258 417 418 
3 258 418 260 
3 260 418 419 
3 260 419 190 
3 190 419 420 
3 190 420 192 
3 192 420 385 
3 383 402 384 
3 384 402 401 
3 384 401 349 
3 349 401 400 
3 349 400 350 
3 350 400 399 
3 350 399 351 
3 351 399 398 
3 351 398 352 
3 352 398 397 
3 352 397 353 
3 353 397 396 
3 353 396 354 
3 354 396 395 
3 354 395 355 
3 355 395 394 
3 355 394 356 
3 356 394 393 
3 356 393 357 
3 357 393 392 
3 357 392 358 
3 358 392 391 
3 358 391 359 
3 359 391 390 
3 359 390 360 
3 360 390 389 
3 360 389 361 
3 361 389 388 
3 361 388 362 
3 362 388 387 
3 362 387 363 
3 363 387 386 
3 363 386 364 
3 364 386 385 
3 364 385 365 
3 365 385 420 
3 365 420 366 
3 366 420 419 
3 366 419 367 
3 367 419 418 
3 367 418 368 
3 368 418 417 
3 368 417 369 
3 369 417 416 
3 369 416 370 
3 370 416 415 
3 370 415 371 
3 371 415 414 
3 371 414 372 
3 372 414 413 
3 372 413 373 
3 373 413 412 
3 373 412 374 
3 374 412 411 
3 374 411 375 
3 375 411 410 
3 375 410 376 
3 376 410 409 
3 376 409 377 
3 377 409 408 
3 377 408 378 
3 378 408 407 
3 378 407 379 
3 379 407 406 
3 379 406 380 
3 380 406 405 
3 380 405 381 
3 381 405 404 
3 381 404 382 
3 382 404 403 
3 382 403 383 
3 383 403 402 
3 74 76 421 
3 421 76 80 
3 421 80 73 
3 73 80 71 
3 51 53 422 
3 422 53 57 
3 422 57 50 
3 50 57 48 
3 23 25 423 
3 423 25 34 
3 423 34 27 
3 27 34 28 
3 0 2 424 
3 424 2 13 
3 424 13 4 
3 4 13 6 
3 19 290 7 
3 7 290 5 
3 8 10 19 
3 19 10 290 
3 94 88 425 
3 425 88 86 
3 425 86 111 
3 111 86 107 
3 85 83 86 
3 86 83 81 
3 86 81 105 
3 105 81 101 
3 98 81 285 
3 285 81 324 
3 81 79 324 
3 324 79 95 
3 77 65 426 
3 426 65 63 
3 426 63 110 
3 110 63 93 
3 62 60 63 
3 63 60 58 
3 63 58 91 
3 91 58 87 
3 56 71 58 
3 58 71 80 
3 58 80 84 
3 84 80 82 
3 96 78 427 
3 427 78 80 
3 427 80 75 
3 75 80 76 
3 54 42 428 
3 428 42 40 
3 428 40 109 
3 109 40 70 
3 39 37 40 
3 40 37 35 
3 40 35 68 
3 68 35 64 
3 33 48 35 
3 35 48 57 
3 35 57 61 
3 61 57 59 
3 72 55 429 
3 429 55 57 
3 429 57 52 
3 52 57 53 
3 30 22 430 
3 430 22 20 
3 430 20 108 
3 108 20 47 
3 18 16 20 
3 20 16 14 
3 20 14 45 
3 45 14 41 
3 12 28 14 
3 14 28 34 
3 14 34 38 
3 38 34 36 
3 49 32 431 
3 431 32 34 
3 431 34 24 
3 24 34 25 
3 19 291 8 
3 8 291 9 
3 21 29 19 
3 19 29 291 
3 7 6 19 
3 19 6 13 
3 19 13 17 
3 17 13 15 
3 26 11 432 
3 432 11 13 
3 432 13 1 
3 1 13 2 
3 27 26 423 
3 423 26 432 
3 422 50 49 
3 97 96 318 
3 318 96 427 
3 52 51 429 
3 429 51 422 
3 4 3 424 
3 424 3 288 
3 75 74 427 
3 427 74 421 
3 427 421 318 
3 318 421 288 
3 49 431 422 
3 422 431 288 
3 422 288 429 
3 429 288 421 
3 429 421 72 
3 72 421 73 
3 432 1 0 
3 24 23 431 
3 431 23 423 
3 431 423 288 
3 288 423 432 
3 288 432 424 
3 424 432 0 
3 104 112 103 
3 103 112 319 
3 31 30 286 
3 286 30 430 
3 66 67 77 
3 109 69 428 
3 428 69 66 
3 90 94 89 
3 89 94 425 
3 108 46 430 
3 430 46 43 
3 430 43 286 
3 286 43 319 
3 77 426 66 
3 66 426 319 
3 66 319 428 
3 428 319 43 
3 428 43 54 
3 54 43 44 
3 425 111 106 
3 110 92 426 
3 426 92 89 
3 426 89 319 
3 319 89 425 
3 319 425 103 
3 103 425 106 
