ply
format ascii 1.0
comment VCGLIB generated
element vertex 178
property float x
property float y
property float z
property float nx
property float ny
property float nz
property uchar red
property uchar green
property uchar blue
property uchar alpha
element face 352
property list uchar int vertex_indices
end_header
2.834655 18.99956 0.5731163 -0.7264099 -0.6848577 0.05743489 0 42 125 255 
2.834655 19.19047 1.703325 -0.7264082 -0.6657282 0.1706961 0 42 125 255 
-4.526993 19.19047 1.703325 -0.3688582 -0.6539944 0.6604809 0 42 125 255 
2.834655 19.56694 2.785954 -0.7264094 -0.6279998 0.2791875 0 42 125 255 
-2.98084 19.56694 2.785954 -0.3483287 -0.591704 0.7270168 0 42 125 255 
2.834655 20.11847 3.790757 -0.7264096 -0.5727283 0.3798835 0 42 125 255 
-1.545831 20.11847 3.790757 -0.3309564 -0.5224043 0.785851 0 42 125 255 
2.834655 20.82965 4.689669 -0.726409 -0.5014591 0.469967 0 42 125 255 
-0.2620521 20.82965 4.689669 -0.3162497 -0.4469732 0.8367802 0 42 125 255 
2.834655 21.68061 5.457577 -0.725249 -0.41769 0.5473108 0 42 125 255 
0.8346348 21.68061 5.457577 -0.3079655 -0.368186 0.8772664 0 42 125 255 
2.834655 22.64758 6.073032 -0.7237654 -0.3237902 0.6093633 0 42 125 255 
2.834655 23.70355 6.518839 -0.7220219 -0.2241033 0.6545703 0 42 125 255 
2.350274 23.70355 6.518839 -0.2884083 -0.1876069 0.9389486 0 42 125 255 
2.063496 23.16624 6.318035 -0.2846847 -0.2194393 0.9331672 0 42 125 255 
1.713594 22.64758 6.073032 -0.2960383 -0.2745622 0.9148645 0 42 125 255 
1.303016 22.15121 5.785542 -0.2997583 -0.3071685 0.9032124 0 42 125 255 
2.834655 25.83357 6.858007 -0.88704 9.633188e-07 0.4616927 0 42 125 255 
2.807676 25.3249 6.839115 -0.0001622175 -0.04013736 0.9991941 0 42 125 255 
2.834655 24.81902 6.782547 -0.7209671 -0.1180088 0.6828473 0 42 125 255 
2.726888 24.81902 6.782547 -0.2842045 -0.09702558 0.9538416 0 42 125 255 
2.571921 24.25578 6.67404 -0.2481305 -0.1283507 0.9601861 0 42 125 255 
2.834655 25.83357 -6.857993 -0.8870383 -1.803079e-07 -0.4616958 0 42 125 255 
2.834655 24.81902 -6.782533 -0.716499 -0.1083355 -0.6891246 0 42 125 255 
2.807676 25.3249 -6.839102 -0.0001533417 -0.04013529 -0.9991943 0 42 125 255 
2.726888 24.81902 -6.782533 -0.2901596 -0.08472495 -0.9532204 0 42 125 255 
2.571921 24.25578 -6.674025 -0.2593431 -0.1313374 -0.9568133 0 42 125 255 
2.834655 23.70355 -6.518826 -0.7186601 -0.2203829 -0.6595143 0 42 125 255 
2.350274 23.70355 -6.518826 -0.293907 -0.1760374 -0.9394836 0 42 125 255 
2.063496 23.16624 -6.318022 -0.2908965 -0.2213343 -0.9308009 0 42 125 255 
2.834655 22.64758 -6.073018 -0.7210442 -0.3241883 -0.6123702 0 42 125 255 
1.713594 22.64758 -6.073018 -0.3007503 -0.2648376 -0.9161934 0 42 125 255 
1.303016 22.15121 -5.785528 -0.3031518 -0.3079398 -0.901816 0 42 125 255 
2.834655 21.68061 -5.457563 -0.724304 -0.4201388 -0.5466874 0 42 125 255 
0.8346348 21.68061 -5.457563 -0.3079657 -0.3681861 -0.8772663 0 42 125 255 
2.834655 20.82965 -4.689655 -0.7264089 -0.5014592 -0.4699669 0 42 125 255 
-0.2620521 20.82965 -4.689655 -0.3162497 -0.4469733 -0.8367801 0 42 125 255 
2.834655 20.11847 -3.790743 -0.7264095 -0.5727283 -0.3798836 0 42 125 255 
-1.545831 20.11847 -3.790743 -0.3309561 -0.5224042 -0.7858511 0 42 125 255 
2.834655 19.56694 -2.78594 -0.7264094 -0.6279998 -0.2791875 0 42 125 255 
-2.98084 19.56694 -2.78594 -0.3483288 -0.591704 -0.7270169 0 42 125 255 
2.834655 19.19047 -1.703312 -0.7264082 -0.6657282 -0.1706961 0 42 125 255 
-4.526993 19.19047 -1.703312 -0.3673955 -0.6493259 -0.6658803 0 42 125 255 
2.834655 18.99956 -0.573102 -0.7263808 -0.6848885 -0.05743362 0 42 125 255 
-5.801345 19.0237 -0.8110008 -0.6914028 -0.5980126 -0.4053927 0 42 125 255 
-5.801345 18.99956 -0.573102 -0.6959065 -0.7172147 -0.03629442 0 42 125 255 
-5.801345 18.99956 0.5731163 -0.6903117 -0.7219375 0.04770793 0 42 125 255 
-5.801345 19.0237 0.8110151 -0.6761776 -0.6167133 0.4030493 0 42 125 255 
2.834655 26.84812 6.782547 -0.7164985 0.1083337 0.6891254 0 42 125 255 
2.807676 26.34225 6.839115 -0.0001660196 0.04013544 0.9991943 0 42 125 255 
2.726888 26.84812 6.782547 -0.290158 0.08472244 0.9532211 0 42 125 255 
2.571921 27.41138 6.67404 -0.2593398 0.131339 0.956814 0 42 125 255 
2.834655 27.96359 6.518839 -0.7186593 0.2203846 0.6595147 0 42 125 255 
2.350274 27.96359 6.518839 -0.293908 0.1760385 0.9394832 0 42 125 255 
2.063496 28.50091 6.318035 -0.2908956 0.2213334 0.9308014 0 42 125 255 
2.834655 29.01956 6.073032 -0.7210446 0.324188 0.6123699 0 42 125 255 
1.713594 29.01956 6.073032 -0.3007509 0.2648381 0.9161931 0 42 125 255 
1.303016 29.51593 5.785542 -0.3031522 0.3079402 0.9018158 0 42 125 255 
2.834655 29.98653 5.457577 -0.7243039 0.420139 0.5466874 0 42 125 255 
0.8346348 29.98653 5.457577 -0.3079656 0.368186 0.8772664 0 42 125 255 
2.834655 30.83749 4.689669 -0.726409 0.5014591 0.4699669 0 42 125 255 
-0.2620521 30.83749 4.689669 -0.3162497 0.4469732 0.8367802 0 42 125 255 
2.834655 31.54868 3.790757 -0.7264096 0.5727283 0.3798835 0 42 125 255 
-1.545831 31.54868 3.790757 -0.3309563 0.5224042 0.785851 0 42 125 255 
2.834655 32.1002 2.785954 -0.7264087 0.6279997 0.2791897 0 42 125 255 
-2.98084 32.1002 2.785954 -0.3483285 0.5917017 0.7270189 0 42 125 255 
2.834655 32.47668 1.703325 -0.7264105 0.6657264 0.1706933 0 42 125 255 
-4.526993 32.47668 1.703325 -0.3673952 0.6493291 0.6658772 0 42 125 255 
2.834655 32.66758 0.5731163 -0.7263793 0.6848906 0.05742931 0 42 125 255 
-5.801345 32.64345 0.8110151 -0.6914018 0.5980202 0.4053831 0 42 125 255 
2.834655 32.66758 -0.573102 -0.7264082 0.6848598 -0.05743048 0 42 125 255 
2.834655 32.47668 -1.703312 -0.7264105 0.6657264 -0.1706932 0 42 125 255 
-4.526993 32.47668 -1.703312 -0.3688588 0.6539989 -0.6604761 0 42 125 255 
2.834655 32.1002 -2.78594 -0.7264087 0.6279997 -0.2791898 0 42 125 255 
-2.98084 32.1002 -2.78594 -0.3483285 0.5917016 -0.727019 0 42 125 255 
2.834655 31.54868 -3.790743 -0.7264095 0.5727283 -0.3798836 0 42 125 255 
-1.545831 31.54868 -3.790743 -0.3309563 0.5224041 -0.7858511 0 42 125 255 
2.834655 30.83749 -4.689655 -0.7264089 0.5014592 -0.4699669 0 42 125 255 
-0.2620521 30.83749 -4.689655 -0.3162497 0.4469733 -0.8367802 0 42 125 255 
2.834655 29.98653 -5.457563 -0.7252491 0.4176897 -0.5473108 0 42 125 255 
0.8346348 29.98653 -5.457563 -0.3079656 0.3681862 -0.8772663 0 42 125 255 
2.834655 29.01956 -6.073018 -0.723765 0.3237905 -0.6093636 0 42 125 255 
2.834655 27.96359 -6.518826 -0.7220219 0.2241037 -0.65457 0 42 125 255 
2.350274 27.96359 -6.518826 -0.2884081 0.1876072 -0.9389485 0 42 125 255 
2.063496 28.50091 -6.318022 -0.2846854 0.2194401 -0.9331668 0 42 125 255 
1.713594 29.01956 -6.073018 -0.2960375 0.274562 -0.9148647 0 42 125 255 
1.303016 29.51593 -5.785528 -0.299758 0.3071681 -0.9032126 0 42 125 255 
2.807676 26.34225 -6.839102 -0.0001519738 0.04013547 -0.9991943 0 42 125 255 
2.834655 26.84812 -6.782533 -0.720967 0.1180093 -0.6828473 0 42 125 255 
2.726888 26.84812 -6.782533 -0.2842007 0.09702733 -0.9538426 0 42 125 255 
2.571921 27.41138 -6.674025 -0.2481146 0.1283567 -0.9601894 0 42 125 255 
-5.801345 32.66758 0.5731163 -0.6959096 0.7172124 0.03628289 0 42 125 255 
-5.801345 32.66758 -0.573102 -0.6903135 0.7219363 -0.04769944 0 42 125 255 
-5.801345 32.64345 -0.8110008 -0.6761728 0.6167257 -0.4030382 0 42 125 255 
2.834655 37.26358 7.534864 -0.5773504 0.5773502 0.5773503 0 42 125 255 
2.834655 37.26358 -7.534851 -0.5773504 0.5773502 -0.5773502 0 42 125 255 
2.834655 -0.8364258 7.534864 -0.3015111 0.3015114 0.9045342 0 42 125 255 
2.834655 -0.8364258 -7.534851 -0.3015106 0.3015116 -0.9045342 0 42 125 255 
2.834655 -6.424427 -7.534851 -0.2281099 -0.1726896 -0.9581984 0 42 125 255 
2.834655 -49.09643 -7.534851 -0.2281098 0.1726896 -0.9581984 0 42 125 255 
1.745727 -49.09643 -5.832185 -0.6076595 0.7258471 -0.3223291 0 42 125 255 
1.745727 -6.424427 -5.832185 -0.6076594 -0.7258471 -0.3223291 0 42 125 255 
0.9467373 -49.09643 -3.975722 -0.6518173 0.7258471 -0.2197276 0 42 125 255 
0.9467373 -6.424427 -3.975722 -0.6518173 -0.7258471 -0.2197276 0 42 125 255 
0.4587574 -49.09643 -2.014419 -0.6787866 0.7258472 -0.1113317 0 42 125 255 
0.4587574 -6.424427 -2.014419 -0.6787866 -0.7258472 -0.1113317 0 42 125 255 
0.2946553 -49.09643 7.629395e-06 -0.6878562 0.7258471 1.964063e-08 0 42 125 255 
0.2946553 -6.424427 7.629395e-06 -0.6878562 -0.7258471 3.273438e-08 0 42 125 255 
0.4587574 -49.09643 2.014432 -0.6787866 0.7258471 0.1113317 0 42 125 255 
0.4587574 -6.424427 2.014432 -0.6787866 -0.7258471 0.1113317 0 42 125 255 
0.9467373 -49.09643 3.975736 -0.6518173 0.7258471 0.2197277 0 42 125 255 
0.9467373 -6.424427 3.975736 -0.6518173 -0.7258472 0.2197277 0 42 125 255 
1.745727 -49.09643 5.832197 -0.6076596 0.725847 0.3223292 0 42 125 255 
1.745727 -6.424427 5.832197 -0.6076595 -0.725847 0.3223292 0 42 125 255 
2.834655 -49.09643 7.534864 -0.2281099 0.1726896 0.9581984 0 42 125 255 
2.834655 -6.424427 7.534864 -0.2281099 -0.1726896 0.9581984 0 42 125 255 
4.866655 -59.25643 -7.534851 0.5773506 -0.5773506 -0.5773497 0 42 125 255 
4.866655 37.26358 -7.534851 0.5773494 0.5773498 -0.5773516 0 42 125 255 
4.866655 -59.25643 -6.603993 0.5491327 -0.8041866 -0.2274582 0 42 125 255 
4.866655 37.26358 -6.603993 0.5491329 0.8041865 -0.2274583 0 42 125 255 
-1.389602 -50.63212 -7.534851 -0.3914244 0.4389439 -0.8087739 0 42 125 255 
0.377872 -49.09643 -7.534851 -0.1824466 0.7071617 -0.6831073 0 42 125 255 
-3.922984 -59.25643 -7.534851 -0.4539534 -0.5992748 -0.6593906 0 42 125 255 
-3.922984 -52.90643 -7.534851 -0.577376 0.2933655 -0.7619539 0 42 125 255 
-3.922984 -6.424427 -7.534851 -0.4544055 -0.5989445 -0.6593794 0 42 125 255 
-3.922984 -0.8364258 -7.534851 -0.4544055 0.5989445 -0.6593793 0 42 125 255 
4.866655 -59.25643 7.534864 0.5773529 -0.5773529 0.577345 0 42 125 255 
4.866655 37.26358 7.534864 0.5773499 0.5773503 0.5773506 0 42 125 255 
-3.922984 -6.424427 7.534864 -0.4544055 -0.5989445 0.6593794 0 42 125 255 
-3.922984 -0.8364258 7.534864 -0.4544055 0.5989445 0.6593793 0 42 125 255 
-3.922984 -52.90643 7.534864 -0.5777139 0.2901791 0.7629173 0 42 125 255 
-3.922984 -59.25643 7.534864 -0.4539534 -0.5992748 0.6593906 0 42 125 255 
-2.184651 -51.33784 7.534864 -0.3941596 0.4393038 0.8072487 0 42 125 255 
0.377872 -49.09643 7.534864 -0.1833182 0.7069983 0.683043 0 42 125 255 
4.866655 37.26358 6.604008 0.5491329 0.8041865 0.2274582 0 42 125 255 
4.866655 -59.25643 6.604008 0.5491328 -0.8041866 0.2274583 0 42 125 255 
8.930655 37.26358 2.540008 0.7172836 0.6302626 0.2971085 0 42 125 255 
8.930655 -59.25643 2.540008 0.7172835 -0.6302626 0.2971084 0 42 125 255 
8.930655 37.26358 -2.539993 0.7172835 0.6302626 -0.2971084 0 42 125 255 
8.930655 -59.25643 -2.539993 0.7172835 -0.6302626 -0.2971086 0 42 125 255 
-3.991699 -52.90643 7.381016 -0.8575329 0.3801374 0.3466019 0 42 125 255 
-4.712452 -59.25643 5.462605 -0.6866302 -0.6943469 0.2154561 0 42 125 255 
-4.687041 -52.90643 5.453438 -0.8685121 0.3840943 0.3133024 0 42 125 255 
-4.850388 -52.90643 5.000622 -0.8901596 0.3787442 0.2533156 0 42 125 255 
-5.245304 -59.25643 3.310027 -0.7072859 -0.694778 0.1305002 0 42 125 255 
-5.208345 -52.90643 3.302238 -0.9031273 0.3848761 0.1903462 0 42 125 255 
-5.372268 -52.90643 2.524482 -0.9164323 0.3792168 0.1278532 0 42 125 255 
-5.513702 -59.25643 1.108782 -0.7176877 -0.6949923 0.04370547 0 42 125 255 
-5.470656 -52.90643 1.105796 -0.9205939 0.385267 0.06384508 0 42 125 255 
-5.547345 -52.90643 7.629395e-06 -0.9252434 0.379374 1.956715e-08 0 42 125 255 
-5.513702 -59.25643 -1.108768 -0.7176877 -0.6949923 -0.04370547 0 42 125 255 
-5.470656 -52.90643 -1.105782 -0.920594 0.3852669 -0.06384506 0 42 125 255 
-5.372268 -52.90643 -2.524467 -0.9164323 0.3792168 -0.1278531 0 42 125 255 
-5.245304 -59.25643 -3.310013 -0.7072859 -0.694778 -0.1305002 0 42 125 255 
-5.208345 -52.90643 -3.302224 -0.9031272 0.384876 -0.1903463 0 42 125 255 
-4.850388 -52.90643 -5.000607 -0.8901596 0.3787442 -0.2533154 0 42 125 255 
-4.712452 -59.25643 -5.462591 -0.6866302 -0.6943469 -0.2154561 0 42 125 255 
-3.991699 -52.90643 -7.381001 -0.8564335 0.3816765 -0.3476275 0 42 125 255 
-4.687041 -52.90643 -5.453424 -0.8685122 0.3840942 -0.3133021 0 42 125 255 
-0.5057912 -49.09643 5.843306 -0.3622629 0.9186667 0.1575343 0 42 125 255 
-0.5057912 -49.09643 -5.843291 -0.3622284 0.9187737 -0.1569894 0 42 125 255 
-1.185587 -49.09643 -3.958813 -0.3817705 0.9178635 -0.1085261 0 42 125 255 
-1.598742 -49.09643 -1.998535 -0.3930966 0.9178635 -0.05478751 0 42 125 255 
-1.737345 -49.09643 7.629395e-06 -0.3968962 0.9178635 3.877487e-09 0 42 125 255 
-1.598742 -49.09643 1.998549 -0.3930965 0.9178635 0.05478752 0 42 125 255 
-1.185587 -49.09643 3.958827 -0.3817706 0.9178635 0.1085261 0 42 125 255 
-4.712452 -0.8364258 5.462605 -0.6873713 0.6937119 0.2151383 0 42 125 255 
-4.712452 -0.8364258 -5.462591 -0.6873713 0.6937119 -0.2151383 0 42 125 255 
-5.245304 -0.8364258 3.310027 -0.708357 0.6937119 0.1303616 0 42 125 255 
-5.245304 -0.8364258 -3.310013 -0.708357 0.6937119 -0.1303615 0 42 125 255 
-5.513702 -0.8364258 -1.108768 -0.7189277 0.6937118 -0.04366787 0 42 125 255 
-5.513702 -0.8364258 1.108782 -0.7189276 0.6937119 0.04366786 0 42 125 255 
-4.712452 -6.424427 5.462605 -0.6873713 -0.6937119 0.2151384 0 42 125 255 
-5.245304 -6.424427 3.310027 -0.7083571 -0.6937119 0.1303616 0 42 125 255 
-5.513702 -6.424427 1.108782 -0.7189277 -0.6937118 0.04366787 0 42 125 255 
-5.513702 -6.424427 -1.108768 -0.7189277 -0.6937119 -0.04366786 0 42 125 255 
-5.245304 -6.424427 -3.310013 -0.708357 -0.6937119 -0.1303615 0 42 125 255 
-4.712452 -6.424427 -5.462591 -0.6873713 -0.6937119 -0.2151383 0 42 125 255 
3 0 1 2 
3 2 1 3 
3 2 3 4 
3 4 3 5 
3 4 5 6 
3 6 5 7 
3 6 7 8 
3 8 7 9 
3 8 9 10 
3 11 12 13 
3 13 14 11 
3 11 14 15 
3 11 15 9 
3 9 15 16 
3 9 16 10 
3 17 18 19 
3 19 18 20 
3 19 20 12 
3 12 20 21 
3 12 21 13 
3 22 23 24 
3 24 23 25 
3 25 23 26 
3 26 23 27 
3 26 27 28 
3 28 27 29 
3 29 27 30 
3 29 30 31 
3 31 30 32 
3 32 30 33 
3 32 33 34 
3 34 33 35 
3 34 35 36 
3 36 35 37 
3 36 37 38 
3 38 37 39 
3 38 39 40 
3 40 39 41 
3 40 41 42 
3 42 41 43 
3 42 43 44 
3 44 43 45 
3 45 43 0 
3 45 0 46 
3 46 0 2 
3 46 2 47 
3 17 48 49 
3 49 48 50 
3 50 48 51 
3 51 48 52 
3 51 52 53 
3 53 52 54 
3 54 52 55 
3 54 55 56 
3 56 55 57 
3 57 55 58 
3 57 58 59 
3 59 58 60 
3 59 60 61 
3 61 60 62 
3 61 62 63 
3 63 62 64 
3 63 64 65 
3 65 64 66 
3 65 66 67 
3 67 66 68 
3 67 68 69 
3 70 71 72 
3 72 71 73 
3 72 73 74 
3 74 73 75 
3 74 75 76 
3 76 75 77 
3 76 77 78 
3 78 77 79 
3 78 79 80 
3 81 82 83 
3 83 84 81 
3 81 84 85 
3 81 85 79 
3 79 85 86 
3 79 86 80 
3 22 87 88 
3 88 87 89 
3 88 89 82 
3 82 89 90 
3 82 90 83 
3 69 68 91 
3 91 68 70 
3 91 70 92 
3 92 70 72 
3 92 72 93 
3 93 44 45 
3 93 45 92 
3 92 45 46 
3 92 46 91 
3 91 46 47 
3 91 47 69 
3 94 55 52 
3 75 73 95 
3 62 94 64 
3 64 94 66 
3 62 60 94 
3 94 60 58 
3 94 58 55 
3 5 3 96 
3 95 82 81 
3 73 71 95 
3 95 71 70 
3 95 70 94 
3 94 70 68 
3 94 68 66 
3 96 12 11 
3 81 79 95 
3 95 79 77 
3 95 77 75 
3 52 48 94 
3 94 48 17 
3 94 17 96 
3 96 17 19 
3 96 19 12 
3 11 9 96 
3 96 9 7 
3 96 7 5 
3 35 33 97 
3 97 33 30 
3 97 30 27 
3 3 1 96 
3 96 1 0 
3 96 0 97 
3 97 0 43 
3 97 43 41 
3 41 39 97 
3 97 39 37 
3 97 37 35 
3 27 23 97 
3 97 23 22 
3 97 22 95 
3 95 22 88 
3 95 88 82 
3 98 99 100 
3 98 100 101 
3 101 100 102 
3 101 102 103 
3 103 102 104 
3 103 104 105 
3 105 104 106 
3 105 106 107 
3 107 106 108 
3 107 108 109 
3 109 108 110 
3 109 110 111 
3 111 110 112 
3 111 112 113 
3 113 112 114 
3 113 114 115 
3 116 117 118 
3 118 117 119 
3 120 121 99 
3 122 123 116 
3 116 123 120 
3 124 125 98 
3 98 125 97 
3 120 99 116 
3 116 99 98 
3 116 98 117 
3 117 98 97 
3 117 97 95 
3 126 127 96 
3 96 127 94 
3 114 126 115 
3 115 126 96 
3 115 96 128 
3 128 96 129 
3 130 131 132 
3 132 131 126 
3 132 126 133 
3 133 126 114 
3 134 127 135 
3 135 127 126 
3 136 134 137 
3 137 134 135 
3 138 136 139 
3 139 136 137 
3 119 138 118 
3 118 138 139 
3 119 117 95 
3 94 127 134 
3 136 138 134 
3 134 138 119 
3 134 119 94 
3 94 119 95 
3 131 130 140 
3 131 140 141 
3 140 142 141 
3 141 142 143 
3 141 143 144 
3 143 145 144 
3 144 145 146 
3 144 146 147 
3 146 148 147 
3 147 148 149 
3 147 149 150 
3 149 151 150 
3 150 151 152 
3 150 152 153 
3 152 154 153 
3 153 154 155 
3 153 155 156 
3 123 122 157 
3 157 122 156 
3 157 156 158 
3 158 156 155 
3 122 116 156 
3 156 116 118 
3 156 118 153 
3 153 118 150 
3 150 118 139 
3 150 139 147 
3 147 139 137 
3 147 137 144 
3 144 137 135 
3 144 135 141 
3 141 135 126 
3 141 126 131 
3 110 159 112 
3 112 159 133 
3 112 133 114 
3 99 121 100 
3 100 121 160 
3 100 160 102 
3 102 160 161 
3 102 161 104 
3 104 161 162 
3 104 162 106 
3 106 162 163 
3 106 163 108 
3 108 163 164 
3 108 164 110 
3 110 164 165 
3 110 165 159 
3 166 129 96 
3 97 125 167 
3 166 96 168 
3 167 169 97 
3 97 169 170 
3 97 170 96 
3 96 170 171 
3 96 171 168 
3 109 111 172 
3 172 111 128 
3 128 111 113 
3 128 113 115 
3 172 173 109 
3 109 173 174 
3 109 174 107 
3 107 174 175 
3 107 175 105 
3 105 175 176 
3 105 176 103 
3 103 176 177 
3 103 177 101 
3 101 177 124 
3 101 124 98 
3 128 129 166 
3 128 166 172 
3 172 166 168 
3 172 168 173 
3 173 168 171 
3 173 171 174 
3 174 171 170 
3 174 170 175 
3 175 170 169 
3 175 169 176 
3 176 169 167 
3 176 167 177 
3 177 167 125 
3 177 125 124 
3 132 133 159 
3 120 123 157 
3 160 121 120 
3 132 159 130 
3 120 157 160 
3 160 157 158 
3 160 158 161 
3 158 155 161 
3 161 155 154 
3 161 154 162 
3 154 152 162 
3 162 152 151 
3 162 151 163 
3 151 149 163 
3 163 149 148 
3 163 148 164 
3 148 146 164 
3 164 146 145 
3 164 145 165 
3 145 143 165 
3 165 143 142 
3 165 142 159 
3 159 142 140 
3 159 140 130 
3 69 47 2 
3 65 67 16 
3 69 2 67 
3 67 2 4 
3 67 4 6 
3 6 8 67 
3 67 8 10 
3 67 10 16 
3 15 57 16 
3 16 57 59 
3 59 61 16 
3 16 61 63 
3 16 63 65 
3 18 13 20 
3 20 13 21 
3 18 17 13 
3 13 17 49 
3 13 49 50 
3 50 51 13 
3 13 51 53 
3 13 53 14 
3 14 53 54 
3 14 54 15 
3 15 54 56 
3 15 56 57 
3 42 44 93 
3 40 42 86 
3 93 72 42 
3 42 72 74 
3 42 74 76 
3 76 78 42 
3 42 78 80 
3 42 80 86 
3 31 85 84 
3 85 31 86 
3 86 31 32 
3 86 32 34 
3 34 36 86 
3 86 36 38 
3 86 38 40 
3 87 83 89 
3 89 83 90 
3 87 22 83 
3 83 22 24 
3 83 24 25 
3 25 26 83 
3 83 26 28 
3 83 28 84 
3 84 28 29 
3 84 29 31 
